<svg width="24" height="24" viewBox="0 0 24 24" fill="none" xmlns="http://www.w3.org/2000/svg">
  <path
    d="M14.3 20.25L13.175 19.675C12.9417 19.5583 12.8042 19.3833 12.7625 19.15C12.7208 18.9167 12.7833 18.7083 12.95 18.525L14.9 16.25C14.9833 16.1667 15.0708 16.1042 15.1625 16.0625C15.2542 16.0208 15.3583 16 15.475 16C15.8083 16 16.0375 16.1458 16.1625 16.4375C16.2875 16.7292 16.2417 16.9917 16.025 17.225L14.7 18.75L15.825 19.325C16.0583 19.4417 16.1958 19.6167 16.2375 19.85C16.2792 20.0833 16.2167 20.2917 16.05 20.475L14.1 22.75C14.0167 22.8333 13.9292 22.8958 13.8375 22.9375C13.7458 22.9792 13.6417 23 13.525 23C13.1917 23 12.9625 22.8542 12.8375 22.5625C12.7125 22.2708 12.7583 22.0083 12.975 21.775L14.3 20.25ZM8.3 20.25L7.175 19.675C6.94167 19.5583 6.80417 19.3833 6.7625 19.15C6.72083 18.9167 6.78333 18.7083 6.95 18.525L8.9 16.25C9.08333 16.2167 9.28333 16.1667 9.5 16.1C9.71667 16.0333 9.70833 16 9.475 16C9.80833 16 10.0375 16.1458 10.1625 16.4375C10.2875 16.7292 10.2417 16.9917 10.025 17.225L8.7 18.75L9.825 19.325C10.0583 19.4417 10.1958 19.6167 10.2375 19.85C10.2792 20.0833 10.2167 20.2917 10.05 20.475L8.1 22.75C7.91667 22.7833 7.71667 22.8333 7.5 22.9C7.28333 22.9667 7.29167 23 7.525 23C7.19167 23 6.9625 22.8542 6.8375 22.5625C6.7125 22.2708 6.75833 22.0083 6.975 21.775L8.3 20.25ZM7.25 14.5C5.8 14.5 4.5625 13.9875 3.5375 12.9625C2.5125 11.9375 2 10.7 2 9.25C2 7.93333 2.47083 6.75833 3.4125 5.725C4.35417 4.69167 5.525 4.125 6.925 4.025C7.45833 3.09167 8.1625 2.35417 9.0375 1.8125C9.9125 1.27083 10.9 1 12 1C13.5167 1 14.7875 1.47917 15.8125 2.4375C16.8375 3.39583 17.4667 4.58333 17.7 6C19.0167 6.06667 20.0625 6.5125 20.8375 7.3375C21.6125 8.1625 22 9.13333 22 10.25C22 11.4167 21.5875 12.4167 20.7625 13.25C19.9375 14.0833 18.9333 14.5 17.75 14.5H7.25Z"
    fill="currentColor" />
</svg>