<svg width="24" height="24" viewBox="0 0 24 24" fill="none" xmlns="http://www.w3.org/2000/svg">
  <path
    d="M13.95 21.925C13.7667 22.0083 13.5708 22.0167 13.3625 21.95C13.1542 21.8833 13.0083 21.7583 12.925 21.575L11.2 18.125C11.1167 17.9417 11.1042 17.7458 11.1625 17.5375C11.2208 17.3292 11.3417 17.1833 11.525 17.1C11.7083 17.0167 11.9042 17.0083 12.1125 17.075C12.3208 17.1417 12.4667 17.2667 12.55 17.45L14.275 20.9C14.3583 21.0833 14.3708 21.2792 14.3125 21.4875C14.2542 21.6958 14.1333 21.8417 13.95 21.925ZM19.95 21.9C19.7667 21.9833 19.5708 21.9917 19.3625 21.925C19.1542 21.8583 19.0083 21.7333 18.925 21.55L17.2 18.1C17.1167 17.9167 17.1042 17.7208 17.1625 17.5125C17.2208 17.3042 17.3417 17.1583 17.525 17.075C17.7083 16.9917 17.9042 16.9833 18.1125 17.05C18.3208 17.1167 18.4667 17.2417 18.55 17.425L20.275 20.875C20.3583 21.0583 20.3708 21.2542 20.3125 21.4625C20.2542 21.6708 20.1333 21.8167 19.95 21.9ZM7.95 21.9C7.76667 21.9833 7.57083 21.9958 7.3625 21.9375C7.15417 21.8792 7.00833 21.7583 6.925 21.575L5.2 18.125C5.11667 17.9417 5.10833 17.7458 5.175 17.5375C5.24167 17.3292 5.36667 17.1833 5.55 17.1C5.73333 17.0167 5.92917 17.0042 6.1375 17.0625C6.34583 17.1208 6.49167 17.2417 6.575 17.425L8.3 20.9C8.38333 21.0833 8.39167 21.275 8.325 21.475C8.25833 21.675 8.13333 21.8167 7.95 21.9ZM7.25 15.5C5.8 15.5 4.5625 14.9875 3.5375 13.9625C2.5125 12.9375 2 11.7 2 10.25C2 8.93333 2.47083 7.75833 3.4125 6.725C4.35417 5.69167 5.525 5.125 6.925 5.025C7.45833 4.09167 8.1625 3.35417 9.0375 2.8125C9.9125 2.27083 10.9 2 12 2C13.5167 2 14.7875 2.47917 15.8125 3.4375C16.8375 4.39583 17.4667 5.58333 17.7 7C19.0167 7.06667 20.0625 7.5125 20.8375 8.3375C21.6125 9.1625 22 10.1333 22 11.25C22 12.4167 21.5875 13.4167 20.7625 14.25C19.9375 15.0833 18.9333 15.5 17.75 15.5H7.25Z"
    fill="currentColor" />
</svg>