<svg width="24" height="24" viewBox="0 0 24 24" fill="none" xmlns="http://www.w3.org/2000/svg">
  <path
    d="M6.49648 18.75C6.21549 18.75 5.97917 18.653 5.7875 18.459C5.59583 18.265 5.5 18.0275 5.5 17.7465C5.5 17.4655 5.59701 17.2292 5.79103 17.0375C5.98504 16.8458 6.22254 16.75 6.50352 16.75C6.78451 16.75 7.02083 16.847 7.2125 17.041C7.40417 17.235 7.5 17.4725 7.5 17.7535C7.5 18.0345 7.40299 18.2708 7.20898 18.4625C7.01496 18.6542 6.77746 18.75 6.49648 18.75ZM9.49648 22C9.21549 22 8.97917 21.903 8.7875 21.709C8.59583 21.5149 8.5 21.2774 8.5 20.9965C8.5 20.7155 8.59701 20.4791 8.79102 20.2875C8.98504 20.0958 9.22254 20 9.50352 20C9.78451 20 10.0208 20.097 10.2125 20.291C10.4042 20.485 10.5 20.7225 10.5 21.0035C10.5 21.2845 10.403 21.5208 10.209 21.7125C10.015 21.9042 9.77746 22 9.49648 22ZM12.4965 18.75C12.2155 18.75 11.9792 18.653 11.7875 18.459C11.5958 18.265 11.5 18.0275 11.5 17.7465C11.5 17.4655 11.597 17.2292 11.791 17.0375C11.985 16.8458 12.2225 16.75 12.5035 16.75C12.7845 16.75 13.0208 16.847 13.2125 17.041C13.4042 17.235 13.5 17.4725 13.5 17.7535C13.5 18.0345 13.403 18.2708 13.209 18.4625C13.015 18.6542 12.7775 18.75 12.4965 18.75ZM18.4965 18.75C18.2155 18.75 17.9792 18.653 17.7875 18.459C17.5958 18.265 17.5 18.0275 17.5 17.7465C17.5 17.4655 17.597 17.2292 17.791 17.0375C17.985 16.8458 18.2225 16.75 18.5035 16.75C18.7845 16.75 19.0208 16.847 19.2125 17.041C19.4042 17.235 19.5 17.4725 19.5 17.7535C19.5 18.0345 19.403 18.2708 19.209 18.4625C19.015 18.6542 18.7775 18.75 18.4965 18.75ZM15.4965 22C15.2155 22 14.9792 21.903 14.7875 21.709C14.5958 21.5149 14.5 21.2774 14.5 20.9965C14.5 20.7155 14.597 20.4791 14.791 20.2875C14.985 20.0958 15.2225 20 15.5035 20C15.7845 20 16.0208 20.097 16.2125 20.291C16.4042 20.485 16.5 20.7225 16.5 21.0035C16.5 21.2845 16.403 21.5208 16.209 21.7125C16.015 21.9042 15.7775 22 15.4965 22ZM7.25 14.5C5.80227 14.5 4.56533 13.9873 3.5392 12.962C2.51307 11.9367 2 10.7007 2 9.25412C2 7.93471 2.47083 6.75833 3.4125 5.725C4.35417 4.69167 5.525 4.125 6.925 4.025C7.45833 3.09167 8.1625 2.35417 9.0375 1.8125C9.9125 1.27083 10.9035 1 12.0106 1C13.5202 1 14.7875 1.47917 15.8125 2.4375C16.8375 3.39583 17.4667 4.58333 17.7 6C19.0167 6.06667 20.0625 6.5125 20.8375 7.3375C21.6125 8.1625 22 9.13019 22 10.2406C22 11.4135 21.5868 12.4167 20.7604 13.25C19.934 14.0833 18.9306 14.5 17.75 14.5H7.25Z"
    fill="currentColor" />
</svg>