<svg width="24" height="24" viewBox="0 0 24 24" xmlns="http://www.w3.org/2000/svg">
<g clip-path="url(#clip0_22_8203)">
<path d="M19.5988 16.664C19.0929 16.8856 18.8624 17.4753 19.084 17.9812C19.3055 18.4871 19.8953 18.7176 20.4011 18.496L19.5988 16.664ZM18 8.00002L18.0012 7.00002H18V8.00002ZM16.74 8.00002L15.7717 8.25005C15.8857 8.69155 16.284 9.00002 16.74 9.00002V8.00002ZM3.37571 17.0312C3.80716 17.376 4.43642 17.3057 4.78119 16.8743C5.12596 16.4428 5.05569 15.8136 4.62424 15.4688L3.37571 17.0312ZM8 15C7.44772 15 7 15.4477 7 16C7 16.5523 7.44772 17 8 17V15ZM8.01 17C8.56228 17 9.01 16.5523 9.01 16C9.01 15.4477 8.56228 15 8.01 15V17ZM8 19C7.44772 19 7 19.4477 7 20C7 20.5523 7.44772 21 8 21V19ZM8.01 21C8.56228 21 9.01 20.5523 9.01 20C9.01 19.4477 8.56228 19 8.01 19V21ZM12 17C11.4477 17 11 17.4477 11 18C11 18.5523 11.4477 19 12 19V17ZM12.01 19C12.5623 19 13.01 18.5523 13.01 18C13.01 17.4477 12.5623 17 12.01 17V19ZM12 21C11.4477 21 11 21.4477 11 22C11 22.5523 11.4477 23 12 23V21ZM12.01 23C12.5623 23 13.01 22.5523 13.01 22C13.01 21.4477 12.5623 21 12.01 21V23ZM16 15C15.4477 15 15 15.4477 15 16C15 16.5523 15.4477 17 16 17V15ZM16.01 17C16.5623 17 17.01 16.5523 17.01 16C17.01 15.4477 16.5623 15 16.01 15V17ZM16 19C15.4477 19 15 19.4477 15 20C15 20.5523 15.4477 21 16 21V19ZM16.01 21C16.5623 21 17.01 20.5523 17.01 20C17.01 19.4477 16.5623 19 16.01 19V21ZM20.4011 18.496C21.6626 17.9435 22.6957 16.9739 23.3268 15.7499L21.5493 14.8332C21.1285 15.6493 20.4398 16.2957 19.5988 16.664L20.4011 18.496ZM23.3268 15.7499C23.958 14.5258 24.1489 13.1219 23.8675 11.7738L21.9097 12.1826C22.0973 13.0813 21.97 14.0172 21.5493 14.8332L23.3268 15.7499ZM23.8675 11.7738C23.586 10.4257 22.8494 9.21547 21.7812 8.34622L20.5188 9.89749C21.231 10.477 21.722 11.2838 21.9097 12.1826L23.8675 11.7738ZM21.7812 8.34622C20.713 7.47697 19.3783 7.00164 18.0012 7.00002L17.9988 9.00002C18.9169 9.0011 19.8067 9.31798 20.5188 9.89749L21.7812 8.34622ZM18 7.00002H16.74V9.00002H18V7.00002ZM17.7082 7.74998C17.3516 6.36907 16.6719 5.09267 15.7252 4.02601L14.2294 5.35363C14.9657 6.18326 15.4944 7.17601 15.7717 8.25005L17.7082 7.74998ZM15.7252 4.02601C14.7784 2.95934 13.5918 2.13294 12.2629 1.61493L11.5365 3.47835C12.5701 3.88125 13.493 4.524 14.2294 5.35363L15.7252 4.02601ZM12.2629 1.61493C10.9341 1.09692 9.50123 0.902126 8.08235 1.04661L8.28496 3.03632C9.38853 2.92394 10.503 3.07545 11.5365 3.47835L12.2629 1.61493ZM8.08235 1.04661C6.66347 1.19109 5.29925 1.6707 4.10212 2.44593L5.18922 4.12468C6.12032 3.52173 7.18139 3.14869 8.28496 3.03632L8.08235 1.04661ZM4.10212 2.44593C2.90498 3.22115 1.90923 4.26978 1.19693 5.50538L2.92963 6.50425C3.48364 5.54323 4.25812 4.72763 5.18922 4.12468L4.10212 2.44593ZM1.19693 5.50538C0.484622 6.74098 0.076165 8.12818 0.00522178 9.55263L2.00275 9.65211C2.05792 8.54421 2.37561 7.46528 2.92963 6.50425L1.19693 5.50538ZM0.00522178 9.55263C-0.0657214 10.9771 0.202881 12.398 0.788888 13.6983L2.61226 12.8765C2.15648 11.8652 1.94757 10.76 2.00275 9.65211L0.00522178 9.55263ZM0.788888 13.6983C1.3749 14.9985 2.26153 16.1409 3.37571 17.0312L4.62424 15.4688C3.75765 14.7763 3.06805 13.8878 2.61226 12.8765L0.788888 13.6983ZM8 17H8.01V15H8V17ZM8 21H8.01V19H8V21ZM12 19H12.01V17H12V19ZM12 23H12.01V21H12V23ZM16 17H16.01V15H16V17ZM16 21H16.01V19H16V21Z" fill=" currentColor"/>
</g>
<defs>
<clipPath id="clip0_22_8203">
<rect width="24" height="24" fill="white"/>
</clipPath>
</defs>
</svg>
