<svg width="24" height="24" viewBox="0 0 24 24" xmlns="http://www.w3.org/2000/svg">
  <g clip-path="url(#clip0_22_8192)">
    <path
      d="M18 10V9V10ZM16.74 10L15.7717 10.25C15.8857 10.6915 16.284 11 16.74 11V10ZM8.99999 20V19H8.99924L8.99999 20ZM18 9H16.74V11H18V9ZM17.7082 9.75C17.2873 8.11987 16.4176 6.64049 15.198 5.47994L13.8193 6.92885C14.7679 7.83149 15.4444 8.98212 15.7717 10.25L17.7082 9.75ZM15.198 5.47994C13.9783 4.3194 12.4575 3.52424 10.8085 3.18481L10.4053 5.14374C11.6879 5.40774 12.8707 6.0262 13.8193 6.92885L15.198 5.47994ZM10.8085 3.18481C9.1595 2.84538 7.44834 2.9753 5.86947 3.55979L6.56381 5.43539C7.79183 4.98079 9.12273 4.87974 10.4053 5.14374L10.8085 3.18481ZM5.86947 3.55979C4.2906 4.14429 2.90733 5.15993 1.87684 6.4913L3.45844 7.71546C4.25993 6.67994 5.3358 5.89 6.56381 5.43539L5.86947 3.55979ZM1.87684 6.4913C0.846356 7.82268 0.209973 9.41641 0.0400047 11.0914L2.02979 11.2933C2.16198 9.99054 2.65695 8.75098 3.45844 7.71546L1.87684 6.4913ZM0.0400047 11.0914C-0.129964 12.7664 0.173299 14.4555 0.915332 15.9667L2.7106 15.0852C2.13346 13.9098 1.89759 12.5961 2.02979 11.2933L0.0400047 11.0914ZM0.915332 15.9667C1.65736 17.478 2.80841 18.7508 4.23769 19.6405L5.29465 17.9426C4.18299 17.2506 3.28773 16.2606 2.7106 15.0852L0.915332 15.9667ZM4.23769 19.6405C5.66696 20.5303 7.31715 21.0013 9.00073 21L8.99924 19C7.68979 19.001 6.40631 18.6346 5.29465 17.9426L4.23769 19.6405ZM8.99999 21H18V19H8.99999V21ZM18 21C19.5913 21 21.1174 20.3679 22.2426 19.2426L20.8284 17.8284C20.0783 18.5786 19.0609 19 18 19V21ZM22.2426 19.2426C23.3678 18.1174 24 16.5913 24 15H22C22 16.0609 21.5786 17.0783 20.8284 17.8284L22.2426 19.2426ZM24 15C24 13.4087 23.3678 11.8826 22.2426 10.7574L20.8284 12.1716C21.5786 12.9217 22 13.9391 22 15H24ZM22.2426 10.7574C21.1174 9.63214 19.5913 9 18 9V11C19.0609 11 20.0783 11.4214 20.8284 12.1716L22.2426 10.7574Z"
      fill=" currentColor" />
  </g>
  <defs>
    <clipPath id="clip0_22_8192">
      <rect width="24" height="24" fill="white" />
    </clipPath>
  </defs>
</svg>