<svg width="24" height="24" viewBox="0 0 24 24" xmlns="http://www.w3.org/2000/svg">
<g clip-path="url(#clip0_22_8196)">
<path d="M18.801 15.92C18.2598 16.0299 17.9101 16.5577 18.02 17.099C18.1299 17.6402 18.6577 17.9899 19.199 17.88L18.801 15.92ZM18 6.99999V8L18.001 7.99999L18 6.99999ZM16.74 6.99999L15.7718 7.25008C15.8858 7.69156 16.284 7.99999 16.74 7.99999V6.99999ZM4.63572 16.8749C5.11892 17.1424 5.72745 16.9675 5.99491 16.4843C6.26237 16.0011 6.08747 15.3925 5.60427 15.1251L4.63572 16.8749ZM13.8321 11.5547C14.1384 11.0952 14.0142 10.4743 13.5547 10.1679C13.0952 9.8616 12.4743 9.98577 12.1679 10.4453L13.8321 11.5547ZM9 17L8.16795 16.4453C7.96338 16.7522 7.94431 17.1467 8.11833 17.4719C8.29234 17.797 8.6312 18 9 18V17ZM15 17L15.8321 17.5547C16.0366 17.2478 16.0557 16.8533 15.8817 16.5281C15.7077 16.203 15.3688 16 15 16V17ZM10.1679 22.4453C9.8616 22.9048 9.98577 23.5257 10.4453 23.8321C10.9048 24.1384 11.5257 24.0142 11.8321 23.5547L10.1679 22.4453ZM19.199 17.88C20.6572 17.5839 21.9533 16.7566 22.8358 15.5586L21.2255 14.3724C20.6372 15.171 19.7731 15.7226 18.801 15.92L19.199 17.88ZM22.8358 15.5586C23.7183 14.3606 24.1242 12.8774 23.9746 11.397L21.9848 11.598C22.0845 12.5849 21.8139 13.5737 21.2255 14.3724L22.8358 15.5586ZM23.9746 11.397C23.8251 9.91659 23.1308 8.54455 22.0266 7.54724L20.6861 9.03149C21.4222 9.69637 21.8851 10.6111 21.9848 11.598L23.9746 11.397ZM22.0266 7.54724C20.9223 6.54993 19.4869 5.9985 17.999 6L18.001 7.99999C18.993 7.999 19.9499 8.36662 20.6861 9.03149L22.0266 7.54724ZM18 5.99999H16.74V7.99999H18V5.99999ZM17.7082 6.74991C17.3355 5.30689 16.6103 3.97902 15.5976 2.88552L14.1302 4.24444C14.9178 5.09495 15.4819 6.12773 15.7718 7.25008L17.7082 6.74991ZM15.5976 2.88552C14.585 1.79201 13.3166 0.967106 11.9064 0.484855L11.2592 2.37726C12.3561 2.75234 13.3426 3.39394 14.1302 4.24444L15.5976 2.88552ZM11.9064 0.484855C10.4962 0.0026046 8.98831 -0.121892 7.51812 0.122543L7.84614 2.09546C8.98962 1.90534 10.1624 2.00218 11.2592 2.37726L11.9064 0.484855ZM7.51812 0.122543C6.04793 0.366979 4.66145 0.972694 3.48316 1.88531L4.70784 3.4665C5.62428 2.75669 6.70265 2.28558 7.84614 2.09546L7.51812 0.122543ZM3.48316 1.88531C2.30488 2.79792 1.37167 3.98886 0.767332 5.35121L2.59553 6.1622C3.06557 5.1026 3.79139 4.17631 4.70784 3.4665L3.48316 1.88531ZM0.767332 5.35121C0.162991 6.71356 -0.0935675 8.20466 0.0206907 9.69065L2.0148 9.53732C1.92594 8.38155 2.12548 7.2218 2.59553 6.1622L0.767332 5.35121ZM0.0206907 9.69065C0.134949 11.1766 0.616447 12.611 1.42196 13.8649L3.10468 12.784C2.47817 11.8087 2.10367 10.6931 2.0148 9.53732L0.0206907 9.69065ZM1.42196 13.8649C2.22746 15.1189 3.33177 16.1532 4.63572 16.8749L5.60427 15.1251C4.59009 14.5637 3.73118 13.7593 3.10468 12.784L1.42196 13.8649ZM12.1679 10.4453L8.16795 16.4453L9.83205 17.5547L13.8321 11.5547L12.1679 10.4453ZM9 18H15V16H9V18ZM14.1679 16.4453L10.1679 22.4453L11.8321 23.5547L15.8321 17.5547L14.1679 16.4453Z" fill=" currentColor"/>
</g>
<defs>
<clipPath id="clip0_22_8196">
<rect width="24" height="24" fill="white"/>
</clipPath>
</defs>
</svg>
