<svg width="24" height="24" viewBox="0 0 24 24" xmlns="http://www.w3.org/2000/svg">
  <g clip-path="url(#clip0_22_8194)">
    <path
      d="M9 19C9 18.4477 8.55228 18 8 18C7.44772 18 7 18.4477 7 19H9ZM7 21C7 21.5523 7.44772 22 8 22C8.55228 22 9 21.5523 9 21H7ZM9 13C9 12.4477 8.55228 12 8 12C7.44772 12 7 12.4477 7 13H9ZM7 15C7 15.5523 7.44772 16 8 16C8.55228 16 9 15.5523 9 15H7ZM17 19C17 18.4477 16.5523 18 16 18C15.4477 18 15 18.4477 15 19H17ZM15 21C15 21.5523 15.4477 22 16 22C16.5523 22 17 21.5523 17 21H15ZM17 13C17 12.4477 16.5523 12 16 12C15.4477 12 15 12.4477 15 13H17ZM15 15C15 15.5523 15.4477 16 16 16C16.5523 16 17 15.5523 17 15H15ZM13 21C13 20.4477 12.5523 20 12 20C11.4477 20 11 20.4477 11 21H13ZM11 23C11 23.5523 11.4477 24 12 24C12.5523 24 13 23.5523 13 23H11ZM13 15C13 14.4477 12.5523 14 12 14C11.4477 14 11 14.4477 11 15H13ZM11 17C11 17.5523 11.4477 18 12 18C12.5523 18 13 17.5523 13 17H11ZM19.5988 15.664C19.0929 15.8856 18.8624 16.4753 19.084 16.9812C19.3055 17.4871 19.8953 17.7176 20.4011 17.496L19.5988 15.664ZM18 7.00002L18.0012 6.00002H18V7.00002ZM16.74 7.00002L15.7717 7.25005C15.8857 7.69155 16.284 8.00002 16.74 8.00002V7.00002ZM3.37571 16.0312C3.80716 16.376 4.43642 16.3057 4.78119 15.8743C5.12596 15.4428 5.05569 14.8136 4.62424 14.4688L3.37571 16.0312ZM7 19V21H9V19H7ZM7 13V15H9V13H7ZM15 19V21H17V19H15ZM15 13V15H17V13H15ZM11 21V23H13V21H11ZM11 15V17H13V15H11ZM20.4011 17.496C21.6626 16.9435 22.6957 15.9739 23.3268 14.7499L21.5493 13.8333C21.1285 14.6493 20.4398 15.2957 19.5988 15.664L20.4011 17.496ZM23.3268 14.7499C23.958 13.5258 24.1489 12.122 23.8675 10.7738L21.9097 11.1826C22.0973 12.0813 21.97 13.0172 21.5493 13.8333L23.3268 14.7499ZM23.8675 10.7738C23.586 9.42573 22.8494 8.21547 21.7812 7.34622L20.5188 8.89749C21.231 9.47699 21.722 10.2838 21.9097 11.1826L23.8675 10.7738ZM21.7812 7.34622C20.713 6.47697 19.3783 6.00164 18.0012 6.00002L17.9988 8.00002C18.9169 8.0011 19.8067 8.31798 20.5188 8.89749L21.7812 7.34622ZM18 6.00002H16.74V8.00002H18V6.00002ZM17.7082 6.74998C17.3516 5.36907 16.6719 4.09267 15.7252 3.02601L14.2294 4.35363C14.9657 5.18326 15.4944 6.17601 15.7717 7.25005L17.7082 6.74998ZM15.7252 3.02601C14.7784 1.95934 13.5918 1.13294 12.2629 0.614932L11.5365 2.47835C12.5701 2.88125 13.493 3.524 14.2294 4.35363L15.7252 3.02601ZM12.2629 0.614932C10.9341 0.09692 9.50123 -0.0978738 8.08235 0.0466065L8.28496 2.03632C9.38853 1.92394 10.503 2.07545 11.5365 2.47835L12.2629 0.614932ZM8.08235 0.0466065C6.66347 0.191087 5.29925 0.670704 4.10212 1.44593L5.18922 3.12468C6.12032 2.52173 7.18139 2.14869 8.28496 2.03632L8.08235 0.0466065ZM4.10212 1.44593C2.90498 2.22115 1.90923 3.26978 1.19693 4.50538L2.92963 5.50425C3.48364 4.54323 4.25812 3.72763 5.18922 3.12468L4.10212 1.44593ZM1.19693 4.50538C0.484622 5.74098 0.076165 7.12818 0.00522178 8.55263L2.00275 8.65211C2.05792 7.54421 2.37561 6.46528 2.92963 5.50425L1.19693 4.50538ZM0.00522178 8.55263C-0.0657214 9.97708 0.202881 11.398 0.788888 12.6983L2.61226 11.8765C2.15648 10.8652 1.94757 9.76002 2.00275 8.65211L0.00522178 8.55263ZM0.788888 12.6983C1.3749 13.9985 2.26153 15.1409 3.37571 16.0312L4.62424 14.4688C3.75765 13.7763 3.06805 12.8878 2.61226 11.8765L0.788888 12.6983Z"
      fill=" currentColor" />
  </g>
  <defs>
    <clipPath id="clip0_22_8194">
      <rect width="24" height="24" fill="white" />
    </clipPath>
  </defs>
</svg>