<svg width="24" height="24" viewBox="0 0 24 24" fill="none" xmlns="http://www.w3.org/2000/svg">
  <path
    d="M6.275 19.975C4.80833 19.975 3.5625 19.4625 2.5375 18.4375C1.5125 17.4125 1 16.1667 1 14.7C1 13.4 1.41667 12.2583 2.25 11.275C3.08333 10.2917 4.14167 9.7 5.425 9.5C5.75833 7.88333 6.54167 6.5625 7.775 5.5375C9.00833 4.5125 10.4333 4 12.05 4C13.9167 4 15.4917 4.67917 16.775 6.0375C18.0583 7.39583 18.7 9.025 18.7 10.925V11.525C19.9 11.4917 20.9167 11.8792 21.75 12.6875C22.5833 13.4958 23 14.5167 23 15.75C23 16.9 22.5833 17.8917 21.75 18.725C20.9167 19.5583 19.925 19.975 18.775 19.975H6.275Z"
    fill="currentColor" />
</svg>