<svg width="24" height="24" viewBox="0 0 24 24" fill="none" xmlns="http://www.w3.org/2000/svg">
  <path
    d="M4.5 21C4.1 21 3.75 20.85 3.45 20.55C3.15 20.25 3 19.9 3 19.5V4.5C3 4.1 3.15 3.75 3.45 3.45C3.75 3.15 4.1 3 4.5 3H15.425C15.6324 3 15.8301 3.04167 16.018 3.125C16.206 3.20833 16.3667 3.31667 16.5 3.45L20.55 7.5C20.6833 7.63333 20.7917 7.79398 20.875 7.98195C20.9583 8.16992 21 8.3676 21 8.575V19.5C21 19.9 20.85 20.25 20.55 20.55C20.25 20.85 19.9 21 19.5 21H4.5ZM15.225 4.5V8.025C15.225 8.2375 15.2969 8.41563 15.4406 8.55938C15.5844 8.70313 15.7625 8.775 15.975 8.775H19.5L15.225 4.5ZM16.275 16.725C16.4875 16.725 16.6656 16.6527 16.8094 16.5081C16.9531 16.3635 17.025 16.1844 17.025 15.9706C17.025 15.7569 16.9531 15.5792 16.8094 15.4375C16.6656 15.2958 16.4875 15.225 16.275 15.225H7.725C7.5125 15.225 7.33438 15.2973 7.19063 15.4419C7.04688 15.5865 6.975 15.7656 6.975 15.9794C6.975 16.1931 7.04688 16.3708 7.19063 16.5125C7.33438 16.6542 7.5125 16.725 7.725 16.725H16.275ZM11.25 8.775C11.4625 8.775 11.6406 8.70271 11.7844 8.55813C11.9281 8.41353 12 8.23436 12 8.02063C12 7.80688 11.9281 7.62917 11.7844 7.4875C11.6406 7.34583 11.4625 7.275 11.25 7.275H7.725C7.5125 7.275 7.33438 7.34729 7.19063 7.49187C7.04688 7.63647 6.975 7.81564 6.975 8.02937C6.975 8.24312 7.04688 8.42083 7.19063 8.5625C7.33438 8.70417 7.5125 8.775 7.725 8.775H11.25ZM16.275 12.75C16.4875 12.75 16.6656 12.6777 16.8094 12.5331C16.9531 12.3885 17.025 12.2094 17.025 11.9956C17.025 11.7819 16.9531 11.6042 16.8094 11.4625C16.6656 11.3208 16.4875 11.25 16.275 11.25H7.725C7.5125 11.25 7.33438 11.3223 7.19063 11.4669C7.04688 11.6115 6.975 11.7906 6.975 12.0044C6.975 12.2181 7.04688 12.3958 7.19063 12.5375C7.33438 12.6792 7.5125 12.75 7.725 12.75H16.275Z"
    fill="currentColor" />
</svg>