<svg width="24" height="24" viewBox="0 0 24 24" fill="none" xmlns="http://www.w3.org/2000/svg">
  <path
    d="M5.5 20.625C5.0875 20.625 4.73438 20.4781 4.44063 20.1844C4.14688 19.8906 4 19.5375 4 19.125V9.375C4 9.1375 4.05313 8.9125 4.15938 8.7C4.26563 8.4875 4.4125 8.3125 4.6 8.175L11.1 3.3C11.2383 3.2 11.3828 3.125 11.5336 3.075C11.6844 3.025 11.8415 3 12.0049 3C12.1683 3 12.3243 3.025 12.4729 3.075C12.6214 3.125 12.7638 3.2 12.9 3.3L19.4 8.175C19.5875 8.3125 19.7344 8.4875 19.8406 8.7C19.9469 8.9125 20 9.1375 20 9.375V19.125C20 19.5375 19.8531 19.8906 19.5594 20.1844C19.2656 20.4781 18.9125 20.625 18.5 20.625H14V13.625H10V20.625H5.5Z"
    fill="currentColor" />
</svg>