<svg width="24" height="24" viewBox="0 0 24 24" xmlns="http://www.w3.org/2000/svg">
  <path
    d="M13.67 22H13.61C13.3899 21.9867 13.1804 21.9011 13.014 21.7564C12.8476 21.6117 12.7337 21.4161 12.69 21.2L11 13L2.8 11.31C2.58347 11.267 2.38726 11.1535 2.24196 10.9874C2.09666 10.8212 2.01043 10.6115 1.99673 10.3912C1.98303 10.1709 2.04263 9.95221 2.16622 9.76929C2.28982 9.58637 2.47047 9.44949 2.68 9.38L18.68 4.05C18.8596 3.97584 19.0569 3.95561 19.2478 3.99179C19.4387 4.02796 19.615 4.11896 19.755 4.25368C19.895 4.3884 19.9927 4.56099 20.0363 4.75036C20.0798 4.93973 20.0672 5.13767 20 5.32L14.67 21.32C14.6004 21.527 14.465 21.7055 14.2844 21.8283C14.1039 21.9511 13.8881 22.0114 13.67 22Z"
    fill=" currentColor" />
</svg>