<svg width="24" height="24" viewBox="0 0 24 24" fill="none" xmlns="http://www.w3.org/2000/svg">
  <path
    d="M10.375 13.1615L3.475 10.4865C3.30833 10.4199 3.1875 10.3199 3.1125 10.1865C3.0375 10.0532 3 9.91154 3 9.76154C3 9.61154 3.0375 9.47821 3.1125 9.36154C3.1875 9.24487 3.30833 9.15321 3.475 9.08654L19.5 3.06154C19.65 2.99487 19.7958 2.98237 19.9375 3.02404C20.0792 3.06571 20.2 3.13654 20.3 3.23654C20.4 3.33654 20.4708 3.45737 20.5125 3.59904C20.5542 3.74071 20.5417 3.88654 20.475 4.03654L14.45 20.0615C14.3833 20.2282 14.2917 20.349 14.175 20.424C14.0583 20.499 13.925 20.5365 13.775 20.5365C13.625 20.5365 13.4833 20.499 13.35 20.424C13.2167 20.349 13.1167 20.2282 13.05 20.0615L10.375 13.1615Z"
    fill="currentColor" />
</svg>