<svg width="24" height="24" viewBox="0 0 24 24" xmlns="http://www.w3.org/2000/svg">
<path d="M13 1C13 0.447715 12.5523 0 12 0C11.4477 0 11 0.447715 11 1H13ZM11 3C11 3.55228 11.4477 4 12 4C12.5523 4 13 3.55228 13 3H11ZM13 21C13 20.4477 12.5523 20 12 20C11.4477 20 11 20.4477 11 21H13ZM11 23C11 23.5523 11.4477 24 12 24C12.5523 24 13 23.5523 13 23H11ZM4.92708 3.51286C4.53655 3.12234 3.90339 3.12234 3.51286 3.51286C3.12234 3.90339 3.12234 4.53655 3.51286 4.92708L4.92708 3.51286ZM4.93286 6.34708C5.32339 6.7376 5.95655 6.7376 6.34708 6.34708C6.7376 5.95655 6.7376 5.32339 6.34708 4.93286L4.93286 6.34708ZM19.0671 17.6529C18.6766 17.2624 18.0434 17.2624 17.6529 17.6529C17.2624 18.0434 17.2624 18.6766 17.6529 19.0671L19.0671 17.6529ZM19.0729 20.4871C19.4634 20.8776 20.0966 20.8776 20.4871 20.4871C20.8776 20.0966 20.8776 19.4634 20.4871 19.0729L19.0729 20.4871ZM1 11C0.447715 11 0 11.4477 0 12C0 12.5523 0.447715 13 1 13V11ZM3 13C3.55228 13 4 12.5523 4 12C4 11.4477 3.55228 11 3 11V13ZM21 11C20.4477 11 20 11.4477 20 12C20 12.5523 20.4477 13 21 13V11ZM23 13C23.5523 13 24 12.5523 24 12C24 11.4477 23.5523 11 23 11V13ZM3.51286 19.0729C3.12234 19.4634 3.12234 20.0966 3.51286 20.4871C3.90339 20.8776 4.53655 20.8776 4.92708 20.4871L3.51286 19.0729ZM6.34708 19.0671C6.7376 18.6766 6.7376 18.0434 6.34708 17.6529C5.95655 17.2624 5.32339 17.2624 4.93286 17.6529L6.34708 19.0671ZM17.6529 4.93286C17.2624 5.32339 17.2624 5.95655 17.6529 6.34708C18.0434 6.7376 18.6766 6.7376 19.0671 6.34708L17.6529 4.93286ZM20.4871 4.92708C20.8776 4.53655 20.8776 3.90339 20.4871 3.51286C20.0966 3.12234 19.4634 3.12234 19.0729 3.51286L20.4871 4.92708ZM16 12C16 14.2091 14.2091 16 12 16V18C15.3137 18 18 15.3137 18 12H16ZM12 16C9.79086 16 8 14.2091 8 12H6C6 15.3137 8.68629 18 12 18V16ZM8 12C8 9.79086 9.79086 8 12 8V6C8.68629 6 6 8.68629 6 12H8ZM12 8C14.2091 8 16 9.79086 16 12H18C18 8.68629 15.3137 6 12 6V8ZM11 1V3H13V1H11ZM11 21V23H13V21H11ZM3.51286 4.92708L4.93286 6.34708L6.34708 4.93286L4.92708 3.51286L3.51286 4.92708ZM17.6529 19.0671L19.0729 20.4871L20.4871 19.0729L19.0671 17.6529L17.6529 19.0671ZM1 13H3V11H1V13ZM21 13H23V11H21V13ZM4.92708 20.4871L6.34708 19.0671L4.93286 17.6529L3.51286 19.0729L4.92708 20.4871ZM19.0671 6.34708L20.4871 4.92708L19.0729 3.51286L17.6529 4.93286L19.0671 6.34708Z" fill=" currentColor"/>
</svg>
