<svg width="24" height="24" viewBox="0 0 24 24" fill="none" xmlns="http://www.w3.org/2000/svg">
  <path
    d="M11.9956 4.75C11.7819 4.75 11.6042 4.67813 11.4625 4.53438C11.3208 4.39063 11.25 4.2125 11.25 4V1.75C11.25 1.5375 11.3223 1.35938 11.4669 1.21563C11.6115 1.07188 11.7906 1 12.0044 1C12.2181 1 12.3958 1.07188 12.5375 1.21563C12.6792 1.35938 12.75 1.5375 12.75 1.75V4C12.75 4.2125 12.6777 4.39063 12.5331 4.53438C12.3885 4.67813 12.2094 4.75 11.9956 4.75ZM17.125 6.875C16.975 6.725 16.9 6.54917 16.9 6.3475C16.9 6.14583 16.975 5.97167 17.125 5.825L18.7 4.225C18.8511 4.075 19.0306 4 19.2383 4C19.4461 4 19.625 4.075 19.775 4.225C19.925 4.375 20 4.55 20 4.75C20 4.95 19.925 5.125 19.775 5.275L18.175 6.875C18.025 7.025 17.85 7.1 17.65 7.1C17.45 7.1 17.275 7.025 17.125 6.875ZM20 12.75C19.7875 12.75 19.6094 12.6777 19.4656 12.5331C19.3219 12.3885 19.25 12.2094 19.25 11.9956C19.25 11.7819 19.3219 11.6042 19.4656 11.4625C19.6094 11.3208 19.7875 11.25 20 11.25H22.25C22.4625 11.25 22.6406 11.3223 22.7844 11.4669C22.9281 11.6115 23 11.7906 23 12.0044C23 12.2181 22.9281 12.3958 22.7844 12.5375C22.6406 12.6792 22.4625 12.75 22.25 12.75H20ZM11.9956 23C11.7819 23 11.6042 22.9281 11.4625 22.7844C11.3208 22.6406 11.25 22.4625 11.25 22.25V20C11.25 19.7875 11.3223 19.6094 11.4669 19.4656C11.6115 19.3219 11.7906 19.25 12.0044 19.25C12.2181 19.25 12.3958 19.3219 12.5375 19.4656C12.6792 19.6094 12.75 19.7875 12.75 20V22.25C12.75 22.4625 12.6777 22.6406 12.5331 22.7844C12.3885 22.9281 12.2094 23 11.9956 23ZM5.825 6.875L4.225 5.3C4.075 5.15217 4 4.97354 4 4.76413C4 4.55471 4.07826 4.375 4.23478 4.225C4.37826 4.075 4.55 4 4.75 4C4.95 4 5.125 4.075 5.275 4.225L6.875 5.825C7.025 5.975 7.1 6.15 7.1 6.35C7.1 6.55 7.025 6.725 6.875 6.875C6.72045 7.00833 6.54015 7.075 6.3341 7.075C6.12803 7.075 5.95833 7.00833 5.825 6.875ZM18.725 19.775L17.125 18.175C16.975 18.0283 16.9 17.8542 16.9 17.6525C16.9 17.4508 16.975 17.275 17.125 17.125C17.2625 16.9917 17.4344 16.925 17.6406 16.925C17.8469 16.925 18.025 16.9917 18.175 17.125L19.8 18.7C19.95 18.85 20.0219 19.03 20.0157 19.2401C20.0096 19.4501 19.9385 19.6293 19.8026 19.7776C19.6543 19.9259 19.4751 20 19.2651 20C19.055 20 18.875 19.925 18.725 19.775ZM1.75 12.75C1.5375 12.75 1.35938 12.6777 1.21563 12.5331C1.07188 12.3885 1 12.2094 1 11.9956C1 11.7819 1.07188 11.6042 1.21563 11.4625C1.35938 11.3208 1.5375 11.25 1.75 11.25H4C4.2125 11.25 4.39063 11.3223 4.53438 11.4669C4.67813 11.6115 4.75 11.7906 4.75 12.0044C4.75 12.2181 4.67813 12.3958 4.53438 12.5375C4.39063 12.6792 4.2125 12.75 4 12.75H1.75ZM4.225 19.7652C4.075 19.6217 4 19.45 4 19.25C4 19.05 4.075 18.875 4.225 18.725L5.825 17.125C5.9625 16.9917 6.13438 16.925 6.34063 16.925C6.54688 16.925 6.725 16.9938 6.875 17.1313C7.025 17.2813 7.1 17.4594 7.1 17.6656C7.1 17.8719 7.025 18.05 6.875 18.2L5.3 19.775C5.15217 19.925 4.97354 20 4.76413 20C4.55471 20 4.375 19.9217 4.225 19.7652ZM12 18C10.3333 18 8.91667 17.4167 7.75 16.25C6.58333 15.0833 6 13.6667 6 12C6 10.3333 6.58333 8.91667 7.75 7.75C8.91667 6.58333 10.3333 6 12 6C13.6667 6 15.0833 6.58333 16.25 7.75C17.4167 8.91667 18 10.3333 18 12C18 13.6667 17.4167 15.0833 16.25 16.25C15.0833 17.4167 13.6667 18 12 18Z"
    fill="currentColor" />
</svg>