<svg width="24" height="24" viewBox="0 0 24 24" fill="none" xmlns="http://www.w3.org/2000/svg">
  <path
    d="M11.55 20.7C10.95 20.7 10.425 20.475 9.975 20.025C9.525 19.575 9.3 19.05 9.3 18.45C9.3 17.85 9.525 17.325 9.975 16.875C10.425 16.425 10.95 16.2 11.55 16.2C12.15 16.2 12.675 16.425 13.125 16.875C13.575 17.325 13.8 17.85 13.8 18.45C13.8 19.05 13.575 19.575 13.125 20.025C12.675 20.475 12.15 20.7 11.55 20.7ZM21.15 9.975C19.7667 8.79167 18.275 7.85417 16.675 7.1625C15.075 6.47083 13.3667 6.125 11.55 6.125C10.9333 6.125 10.3417 6.1625 9.775 6.2375C9.20833 6.3125 8.73333 6.41667 8.35 6.55L6.525 4.725C7.25833 4.45833 8.05417 4.25 8.9125 4.1C9.77083 3.95 10.65 3.875 11.55 3.875C13.6833 3.875 15.7042 4.28333 17.6125 5.1C19.5208 5.91667 21.2333 7.00833 22.75 8.375C22.9833 8.575 23.1 8.82917 23.1 9.1375C23.1 9.44583 22.9833 9.71667 22.75 9.95C22.5333 10.1667 22.2708 10.275 21.9625 10.275C21.6542 10.275 21.3833 10.175 21.15 9.975ZM16.925 14.2C16.5583 13.8833 16.1917 13.6125 15.825 13.3875C15.4583 13.1625 15.025 12.9333 14.525 12.7L11.7 9.875C13.0833 9.90833 14.325 10.1625 15.425 10.6375C16.525 11.1125 17.5583 11.775 18.525 12.625C18.7583 12.825 18.875 13.075 18.875 13.375C18.875 13.675 18.7583 13.9417 18.525 14.175C18.3083 14.3917 18.0458 14.5 17.7375 14.5C17.4292 14.5 17.1583 14.4 16.925 14.2ZM19.15 21.6L9.825 12.3C9.125 12.4667 8.46667 12.7167 7.85 13.05C7.23333 13.3833 6.66667 13.7667 6.15 14.2C5.91667 14.4 5.64583 14.4958 5.3375 14.4875C5.02917 14.4792 4.76667 14.3667 4.55 14.15C4.33333 13.9333 4.225 13.675 4.225 13.375C4.225 13.075 4.34167 12.825 4.575 12.625C5.05833 12.1917 5.57917 11.8 6.1375 11.45C6.69583 11.1 7.33333 10.7833 8.05 10.5L5.275 7.725C4.675 8.025 4.09583 8.36667 3.5375 8.75C2.97917 9.13333 2.45 9.54167 1.95 9.975C1.71667 10.175 1.44583 10.275 1.1375 10.275C0.829167 10.275 0.558333 10.1583 0.325 9.925C0.108333 9.70833 0 9.44583 0 9.1375C0 8.82917 0.116667 8.575 0.35 8.375C0.85 7.90833 1.37083 7.47917 1.9125 7.0875C2.45417 6.69583 3.00833 6.35 3.575 6.05L1.8 4.275C1.66667 4.14167 1.6 3.96667 1.6 3.75C1.6 3.53333 1.675 3.35 1.825 3.2C1.95833 3.06667 2.13333 3 2.35 3C2.56667 3 2.75 3.06667 2.9 3.2L20.225 20.55C20.3583 20.6833 20.425 20.8583 20.425 21.075C20.425 21.2917 20.3583 21.4667 20.225 21.6C20.075 21.75 19.8917 21.825 19.675 21.825C19.4583 21.825 19.2833 21.75 19.15 21.6Z"
    fill="currentColor" />
</svg>