<svg width="24" height="24" viewBox="0 0 24 24" xmlns="http://www.w3.org/2000/svg">
  <path
    d="M12 20C12.5523 20 13 19.5523 13 19C13 18.4477 12.5523 18 12 18C11.4477 18 11 18.4477 11 19C11 19.5523 11.4477 20 12 20Z"
    fill="currentColor" />
  <path
    d="M12.44 11L10.54 9.11L8.08 6.67L6.53 5.12L4.71 3.29C4.61676 3.19676 4.50607 3.1228 4.38425 3.07234C4.26243 3.02188 4.13186 2.99591 4 2.99591C3.86814 2.99591 3.73758 3.02188 3.61575 3.07234C3.49393 3.1228 3.38324 3.19676 3.29 3.29C3.1017 3.47831 2.99591 3.7337 2.99591 4C2.99591 4.2663 3.1017 4.5217 3.29 4.71L4.67 6.08L6.13 7.54L8.36 9.78L9.91 11.32L12.65 14.06L15.44 16.86L19.29 20.71C19.383 20.8037 19.4936 20.8781 19.6154 20.9289C19.7373 20.9797 19.868 21.0058 20 21.0058C20.132 21.0058 20.2627 20.9797 20.3846 20.9289C20.5064 20.8781 20.617 20.8037 20.71 20.71C20.8037 20.617 20.8781 20.5064 20.9289 20.3846C20.9797 20.2627 21.0058 20.132 21.0058 20C21.0058 19.868 20.9797 19.7373 20.9289 19.6154C20.8781 19.4936 20.8037 19.383 20.71 19.29L12.44 11Z"
    fill=" currentColor" />
  <path
    d="M21.72 7.92999C19.1154 5.40415 15.6282 3.99418 12 3.99999C10.4905 4.00408 8.99138 4.25055 7.56 4.72999L9.18 6.34999C11.1418 5.8598 13.1962 5.87803 15.149 6.40297C17.1018 6.92792 18.8884 7.94222 20.34 9.34999C20.5254 9.52867 20.7725 9.62896 21.03 9.62999C21.1647 9.62947 21.2979 9.60175 21.4216 9.54848C21.5454 9.49521 21.6571 9.41749 21.75 9.31999C21.9263 9.12966 22.0217 8.87828 22.0161 8.61892C22.0105 8.35957 21.9043 8.11253 21.72 7.92999Z"
    fill=" currentColor" />
  <path
    d="M3.81999 6.64999C3.27741 7.0402 2.76282 7.46791 2.27999 7.92999C2.11122 8.11765 2.01966 8.36217 2.02365 8.61452C2.02765 8.86687 2.12692 9.10837 2.30154 9.29059C2.47616 9.4728 2.71323 9.58225 2.96517 9.59698C3.21712 9.6117 3.46532 9.53062 3.65999 9.36999C4.15868 8.89872 4.69367 8.4674 5.25999 8.07999L3.81999 6.64999Z"
    fill=" currentColor" />
  <path
    d="M17 13.14C17.0926 13.2345 17.2031 13.3097 17.3249 13.3612C17.4468 13.4127 17.5777 13.4395 17.71 13.44C17.9054 13.4393 18.0963 13.3813 18.2592 13.2732C18.422 13.1651 18.5496 13.0117 18.6262 12.832C18.7028 12.6522 18.725 12.4539 18.6901 12.2616C18.6553 12.0693 18.5648 11.8914 18.43 11.75C17.5959 10.8858 16.5973 10.1972 15.493 9.72492C14.3887 9.25262 13.201 9.00614 12 9H11.84L14.19 11.35C15.2571 11.7118 16.221 12.3259 17 13.14Z"
    fill=" currentColor" />
  <path
    d="M7.43001 10.26C6.73122 10.667 6.09187 11.1684 5.53001 11.75C5.34568 11.9449 5.24634 12.2051 5.25384 12.4733C5.26135 12.7415 5.37507 12.9957 5.57001 13.18C5.76494 13.3643 6.02511 13.4637 6.29329 13.4562C6.56147 13.4487 6.81568 13.3349 7.00001 13.14C7.58259 12.5608 8.25875 12.0841 9.00001 11.73L7.43001 10.26Z"
    fill=" currentColor" />
  <path
    d="M8.52999 15.4C8.33903 15.5843 8.22912 15.837 8.22443 16.1023C8.21974 16.3677 8.32066 16.6241 8.50499 16.815C8.68931 17.006 8.94194 17.1159 9.20731 17.1206C9.47267 17.1253 9.72903 17.0243 9.91999 16.84C10.4348 16.3652 11.0969 16.0814 11.7958 16.0359C12.4946 15.9904 13.188 16.186 13.76 16.59L11.24 14.07C10.2212 14.2235 9.27472 14.6881 8.52999 15.4Z"
    fill=" currentColor" />
</svg>