<svg width="588" height="400" viewBox="0 0 588 400" xmlns="http://www.w3.org/2000/svg">
  <path
    d="M460.186 0.796736C459.101 1.24077 456.634 2.57288 454.71 3.70765C449.43 6.86525 433.05 14.0192 424.959 16.6834C411.095 21.2718 406.704 22.0612 386.722 23.344C369.898 24.4294 369.504 24.4788 367.629 25.7615C366.099 26.7976 366.001 26.995 366.05 29.8072C366.099 31.8794 366.642 34.0503 367.925 37.3065C368.911 39.8228 370.638 45.7926 371.724 50.6277C374.092 61.0379 377.2 72.4843 380.802 84.2759C382.233 89.0124 383.811 94.1435 384.206 95.6236C385.341 99.6199 386.673 101.445 389.288 102.63C391.459 103.567 392.594 103.616 415.042 103.764C439.464 103.863 443.905 103.666 450.17 101.988C454.512 100.804 458.805 97.7944 460.137 94.9822C460.63 93.9954 461.321 91.0352 461.715 88.371C463.344 77.6154 467.389 29.6099 467.587 18.9036C467.685 13.2791 467.883 11.059 468.524 9.57882C468.968 8.54273 469.363 7.21062 469.363 6.61857C469.363 5.18777 466.649 1.5368 464.873 0.648718C463.146 -0.239358 462.702 -0.239358 460.186 0.796736Z"
    fill="currentColor" />
  <path
    d="M328.306 34.9876C319.327 37.9479 319.278 37.9479 318.537 36.9611C318.143 36.3691 317.501 35.925 317.107 35.925C316.712 35.925 313.653 36.8131 310.347 37.8492C307.042 38.9346 301.565 40.6121 298.21 41.5989C289.724 44.0657 289.28 44.3124 289.28 46.9273C289.28 49.8382 290.119 52.4038 291.55 54.18C293.129 56.0548 294.757 56.1041 299.493 54.4266C302.996 53.2425 320.708 47.766 321.202 47.766C321.35 47.766 321.3 47.4207 321.152 47.026C320.955 46.5326 321.3 46.0886 322.04 45.7926C325.099 44.6578 341.43 40.8588 342.368 41.0561C342.96 41.2042 345.722 42.7336 348.535 44.4111L353.666 47.5194L355.787 52.9465C356.971 55.9068 360.228 63.8995 363.04 70.708C369.553 86.4467 370.983 90.3444 372.167 95.6729C373.648 102.235 373.598 102.284 370.589 103.271C369.158 103.764 367.826 104.258 367.628 104.455C367.431 104.603 367.036 112.201 366.79 121.279C366.198 139.978 365.951 142.001 363.287 152.756C360.277 164.943 356.33 175.254 350.41 186.355C345.328 195.878 341.085 200.762 327.912 212.356C317.057 221.878 314.196 223.951 307.288 227.306C296.681 232.486 250.994 250.05 248.133 250.05C247.787 250.05 242.804 236.976 235.601 217.093C229.039 198.986 217.494 167.163 209.896 146.392C202.298 125.571 196.032 108.205 195.934 107.711C195.835 107.021 197.315 106.33 204.173 103.912C213.892 100.508 222.329 98.5838 227.707 98.5838C229.779 98.5838 231.802 98.4358 232.246 98.2878C233.775 97.6957 232.789 93.206 230.914 92.2686C226.473 89.999 223.464 89.6537 205.258 89.407L188.582 89.2096L183.303 87.1868C170.574 82.3517 157.944 82.8451 154.589 88.3709C153.503 90.1471 152.862 93.5513 153.355 95.0808C153.799 96.5116 157.302 98.4358 162.631 100.163C167.959 101.889 173.781 104.406 177.777 106.823C179.948 108.106 181.478 108.599 183.698 108.797C186.313 109.043 186.806 109.241 187.349 110.375C190.654 116.839 203.926 152.608 203.926 155.075C203.926 155.815 203.038 156.753 201.114 158.085C198.696 159.762 197.956 160.7 195.045 165.979C193.22 169.235 189.125 175.452 185.967 179.843L180.244 187.786L174.176 184.53C166.528 180.435 160.016 177.721 150.395 174.613C138.949 170.913 133.472 170.025 119.312 169.778C105.843 169.482 101.156 170.074 87.2428 173.577C59.4164 180.534 34.2542 198.591 17.5288 223.605C13.2364 230.019 9.38808 238.555 5.14505 251.284C0.507313 265.148 0.260625 266.924 0.063275 287.053C-0.0847378 298.944 -0.0847377 299.24 1.34605 304.963C2.13545 308.219 3.02353 311.081 3.36889 311.377C3.66492 311.722 4.30631 313.498 4.79968 315.373C6.5265 322.28 12.1016 335.256 16.7394 343.15C25.1761 357.508 30.0112 363.329 40.8161 372.013C46.8353 376.897 57.9363 384.248 64.3008 387.653C73.0336 392.291 89.4137 397.027 104.758 399.346C110.727 400.234 113.786 400.234 122.026 399.247C144.08 396.731 158.733 391.698 176.544 380.647C183.846 376.058 188.484 372.161 194.996 365.007C204.37 354.695 208.268 349.071 213.646 338.167C215.077 335.207 216.359 332.691 216.458 332.592C216.557 332.493 217.938 332.74 219.517 333.135C221.145 333.529 228.99 335.158 236.982 336.687C250.353 339.253 252.129 339.45 258.938 339.549C266.98 339.598 269.644 339.154 277.094 336.292C280.498 334.96 281.534 334.269 285.728 330.224C290.267 325.882 290.612 325.339 292.685 320.603C293.869 317.889 295.102 314.238 295.398 312.561L295.941 309.502L300.283 309.354C304.23 309.206 305.512 309.601 304.082 310.489C303.835 310.637 303.588 311.328 303.588 311.92C303.588 312.758 304.082 313.301 305.315 313.942C307.239 314.83 309.311 314.633 311.532 313.35C312.666 312.66 312.913 312.66 313.998 313.35C314.985 313.992 315.38 314.041 316.367 313.498C317.403 312.956 317.797 313.005 319.672 314.041L321.794 315.225L324.655 313.745C326.283 312.956 327.862 311.92 328.257 311.476C328.849 310.735 328.8 310.538 327.862 309.847C327.27 309.354 326.678 308.318 326.481 307.479C326.234 306.196 326.431 305.752 327.468 304.963C329.096 303.68 329.096 303.187 327.468 301.904C326.037 300.769 322.83 300.523 320.659 301.361C319.82 301.657 318.932 301.657 318.143 301.361C317.403 301.065 316.465 301.065 315.775 301.312C315.034 301.608 314.097 301.509 313.012 301.065C310.89 300.177 308.917 300.177 306.696 301.115C305.562 301.608 303.292 301.855 300.085 301.855C295.25 301.855 295.201 301.855 295.201 300.671C295.201 297.76 291.747 288.978 290.07 287.596C289.626 287.201 289.28 286.757 289.28 286.56C289.28 286.363 294.313 281.676 300.529 276.1C318.932 259.523 335.312 244.179 357.613 222.619C383.564 197.555 403.99 179.053 404.829 179.892C405.076 180.139 406.654 183 408.381 186.257L411.44 192.177L403.595 198.048C392.495 206.288 385.439 213.935 376.065 227.996C370.194 236.778 367.628 242.354 363.139 256.217C358.353 270.969 357.119 279.061 357.514 293.221C358.057 313.054 360.08 321.984 367.974 339.499L370.835 345.864L373.549 343.101L376.312 340.387L373.746 333.381C372.365 329.484 371.279 326.277 371.329 326.178C371.427 326.129 372.315 328.102 373.352 330.619C375.966 336.934 379.765 343.693 385.735 352.722C390.028 359.185 391.656 361.208 395.948 365.155C405.273 373.888 418.298 383.114 428.758 388.442C438.526 393.376 460.876 399.148 473.309 399.839C484.805 400.53 508.487 395.941 520.624 390.712C526.446 388.245 536.955 382.374 543.122 378.279C548.5 374.677 559.009 364.365 565.225 356.619C574.205 345.42 581.26 329.928 585.01 313.202C587.625 301.411 587.871 298.598 587.625 285.82C587.329 272.4 586.49 266.036 584.22 259.227C580.964 249.458 573.711 234.41 568.432 226.269C563.499 218.721 551.954 206.83 542.875 199.973C531.972 191.733 525.607 188.082 516.431 184.925C503.701 180.534 491.071 178.017 481.598 178.017C479.477 178.017 477.75 177.919 477.75 177.771C477.75 177.623 478.194 176.636 478.737 175.55C479.279 174.465 479.723 173.478 479.723 173.281C479.723 172.541 460.284 173.577 455.597 174.564C446.322 176.537 429.744 181.718 425.057 184.135C424.219 184.579 423.429 184.925 423.232 184.925C423.084 184.925 422.985 183.247 422.985 181.224C422.985 176.685 424.12 174.12 428.166 169.581C429.843 167.706 431.076 165.782 431.422 164.499C431.718 163.413 432.063 162.229 432.113 161.884C432.261 161.489 432.853 161.44 434.185 161.785C438.033 162.673 444.102 162.081 445.483 160.65C445.976 160.108 445.927 159.318 445.138 156.062C443.855 150.684 443.954 147.921 445.582 143.382C447.21 138.695 446.914 137.857 443.51 137.659C436.701 137.215 425.452 141.557 420.124 146.688C417.41 149.352 417.41 149.352 417.657 151.868C417.953 155.026 419.137 156.358 423.725 158.628C425.649 159.614 427.228 160.453 427.327 160.502C427.82 160.947 426.093 165.338 424.465 167.903C423.38 169.531 422.196 171.85 421.752 173.084C420.617 176.439 418.347 181.471 418.051 181.471C417.509 181.471 395.011 127.496 387.462 108.155C383.614 98.3371 382.134 95.0808 380.259 92.6139C378.976 90.8871 376.904 87.2361 375.621 84.5226C373.697 80.4769 364.816 57.8803 363.533 53.7852C363.139 52.4038 364.224 51.0223 366.79 49.6902C368.812 48.7035 369.207 47.9634 369.207 45.4965C369.207 43.7697 367.332 41.3522 366 41.3522C365.655 41.3522 362.744 40.02 359.537 38.3426C352.136 34.5436 345.92 32.4714 341.085 32.1754C337.582 31.978 336.891 32.126 328.306 34.9876ZM378.433 114.224C380.061 115.655 391.853 145.454 399.599 167.558L400.537 170.173L390.669 179.892C385.242 185.27 375.029 194.792 367.974 201.157C360.918 207.521 350.459 217.093 344.686 222.471L334.276 232.239L330.773 227.996L327.221 223.753L329.096 222.273C333.24 219.017 347.548 204.117 351.1 199.331C355.097 194.003 358.304 188.132 362.349 178.56C365.754 170.765 369.454 160.552 370.687 155.963C372.513 149.105 373.746 137.659 373.894 126.361C373.993 117.579 374.141 115.655 374.832 114.619C375.769 113.188 377.101 113.04 378.433 114.224ZM212.61 179.991C214.435 185.566 218.086 195.631 220.701 202.439C225.98 215.859 230.519 228.391 236.489 245.61C238.611 251.728 241.571 259.918 243.1 263.766C244.63 267.664 245.863 270.969 245.863 271.068C245.863 271.216 242.607 271.216 238.611 271.167L231.407 271.019L230.075 264.358C226.72 247.238 221.589 234.953 211.278 219.461C204.518 209.248 202.643 207.077 193.072 198.591C189.421 195.335 186.115 192.375 185.721 192.029C185.129 191.486 185.918 190.204 190.852 183.592C194.059 179.3 198.795 173.084 201.41 169.729L206.097 163.66L207.725 166.768C208.613 168.495 210.784 174.416 212.61 179.991ZM127.946 176.537C133.669 177.179 144.573 179.793 153.849 182.803C161.743 185.369 163.667 186.257 170.722 190.697C175.212 193.509 175.754 194.003 175.31 194.841C175.014 195.335 174.669 195.779 174.57 195.779C174.472 195.779 172.399 194.496 170.031 192.967C163.765 188.921 159.177 186.75 151.628 184.283C134.36 178.56 120.792 176.932 106.188 178.708C93.9527 180.238 74.7604 186.158 62.6727 192.079C60.2058 193.361 58.6763 193.904 59.3671 193.312C61.2912 191.733 73.3296 185.763 79.5955 183.296C92.0285 178.363 114.921 175.205 127.946 176.537ZM111.665 193.657C111.665 194.151 112.652 207.423 113.885 223.211L116.105 251.876L114.675 258.487C113.293 265.049 113.293 265.098 112.75 263.125C111.122 257.254 95.8769 195.68 95.8769 195.088C95.8769 194.595 96.913 194.249 99.2318 193.855C104.116 193.065 105.202 192.967 108.606 192.868C111.221 192.819 111.665 192.967 111.665 193.657ZM123.161 193.904C125.874 194.249 127.65 194.693 127.798 195.088C127.996 195.631 117.487 246.646 116.747 248.57C116.5 249.211 112.257 198.492 112.208 194.101L112.158 192.671L115.513 193.016C117.339 193.213 120.792 193.608 123.161 193.904ZM478.243 194.397C478.243 195.285 478.49 200.466 478.737 205.893C478.983 211.32 479.526 223.507 479.97 233.029C480.365 242.502 480.809 253.158 481.006 256.711L481.302 263.125L478.243 269.489L475.234 275.854L472.767 272.055C468.03 264.654 468.721 268.305 464.922 229.378C462.998 209.988 461.518 194.052 461.616 194.003C462.011 193.559 468.77 192.917 473.211 192.868L478.243 192.819V194.397ZM487.765 194.151C491.071 194.595 493.735 195.236 493.834 195.532C494.031 196.075 487.568 241.071 485.891 250.84C485.249 254.737 481.796 262.878 481.697 260.707C481.697 260.164 481.351 252.517 480.957 243.686C480.562 234.854 480.019 222.471 479.723 216.254C479.477 209.988 479.082 202.291 478.934 199.084L478.638 193.312H480.266C481.203 193.312 484.558 193.707 487.765 194.151ZM461.172 196.618C461.37 197.95 462.702 211.518 464.182 226.862C465.711 242.206 467.142 256.711 467.389 259.128C467.636 261.595 467.784 263.618 467.685 263.717C467.636 263.815 466.254 261.793 464.675 259.326L461.863 254.737L453.772 226.516C449.331 211.024 445.68 198.098 445.68 197.851C445.68 197.407 449.035 196.519 457.275 194.644C457.817 194.496 458.854 194.397 459.594 194.348C460.778 194.299 460.926 194.496 461.172 196.618ZM103.968 230.167C108.853 249.656 112.849 266.036 112.849 266.529C112.898 267.368 112.306 267.614 108.458 268.206C106.04 268.601 103.574 268.947 103.031 268.947C102.192 269.045 100.811 265.148 90.8444 234.015C84.6772 214.724 79.5955 198.936 79.5955 198.887C79.5461 198.246 91.3872 194.891 93.9034 194.841C95.1368 194.792 95.1862 194.989 103.968 230.167ZM138.307 196.618C141.415 197.308 144.03 197.9 144.129 197.999C144.178 198.048 138.307 212.554 131.055 230.217C123.358 248.915 117.684 262.089 117.487 261.743C117.289 261.398 117.092 258.536 117.043 255.428C116.895 249.902 116.993 249.359 122.667 222.915C125.874 208.113 128.588 195.73 128.686 195.384C128.933 194.644 129.772 194.743 138.307 196.618ZM500.544 196.47C508.24 198.147 510.609 198.936 510.411 199.775C510.214 200.861 486.877 250.988 486.68 250.79C486.483 250.593 494.623 195.285 494.87 195.285C494.969 195.285 497.534 195.828 500.544 196.47ZM184.241 199.973C192.283 205.942 207.528 225.677 212.856 236.976C215.521 242.748 219.862 253.504 219.566 253.8C219.468 253.899 218.431 251.728 217.297 248.915C214.238 241.712 208.811 231.351 205.061 225.727C201.509 220.349 188.878 206.978 183.254 202.587C181.478 201.157 179.8 199.874 179.603 199.677C179.208 199.381 179.997 197.259 180.442 197.259C180.491 197.259 182.218 198.492 184.241 199.973ZM452.686 224.74C456.929 239.591 460.334 251.826 460.284 251.925C460.087 252.073 430.435 205.4 430.04 204.364C429.892 203.92 430.583 203.328 432.162 202.637C434.826 201.502 444.299 197.802 444.694 197.752C444.842 197.752 448.443 209.889 452.686 224.74ZM151.283 200.269C157.993 202.489 163.568 204.956 165.443 206.485L166.676 207.521L162.976 212.85C150.888 230.562 145.066 238.999 144.622 239.443C143.981 240.084 145.511 236.778 152.368 222.421C159.276 208.015 160.756 204.758 160.114 205.4C159.818 205.646 155.575 214.428 150.592 224.888C145.659 235.348 140.725 245.215 139.639 246.843C137.271 250.346 125.529 266.874 124.986 267.516C124.739 267.713 123.013 267.762 121.088 267.565C117.635 267.22 117.585 267.22 117.585 265.789C117.585 265 123.457 250.1 130.611 232.634C137.814 215.218 143.932 200.318 144.178 199.578C144.474 198.838 144.82 198.246 144.968 198.246C145.116 198.246 147.928 199.134 151.283 200.269ZM82.1117 208.409C96.3703 253.01 100.811 267.022 100.663 267.17C100.515 267.269 98.2451 264.95 95.5315 262.039L90.6471 256.711L77.6713 231.795C70.5174 218.079 64.4982 206.633 64.2021 206.386C63.5114 205.696 64.7449 208.113 77.7206 232.979C83.9372 244.87 88.9696 254.688 88.8709 254.737C88.6736 254.935 51.2757 215.662 51.0783 215.07C50.7823 214.182 61.4886 206.534 66.7184 203.92C70.2213 202.143 78.7567 198.69 79.0034 198.936C79.0528 199.035 80.4836 203.278 82.1117 208.409ZM523.88 203.92C525.361 204.561 526.594 205.252 526.594 205.4C526.594 205.745 485.94 263.618 484.904 264.753C484.509 265.197 484.558 263.717 485.15 259.77L485.989 254.096L498.718 226.714L511.447 199.331L516.332 201.009C518.996 201.946 522.4 203.229 523.88 203.92ZM444.694 228.638C453.229 242.107 460.531 253.701 460.876 254.343C461.222 254.984 462.208 257.895 462.998 260.806C463.787 263.717 464.577 266.43 464.675 266.825C465.021 267.762 461.814 264.407 450.663 252.073L441.585 242.008L439.119 235.545C437.786 231.993 434.925 225.184 432.754 220.448C430.583 215.711 428.264 210.432 427.623 208.755L426.439 205.696L427.524 204.906C428.166 204.512 428.758 204.166 428.906 204.166C429.054 204.166 436.158 215.169 444.694 228.638ZM532.613 209.544C534.587 211.123 537.054 213.195 538.139 214.083L540.063 215.81L517.713 244.623L495.363 273.486L489.147 276.594C482.042 280.097 482.092 280.344 489.245 276.989C491.86 275.755 494.031 274.916 494.031 275.114C493.982 275.311 493.489 276.051 492.896 276.742C492.107 277.729 490.676 278.321 487.42 279.209C485.002 279.801 483.226 280.393 483.522 280.492C483.818 280.59 485.644 280.245 487.568 279.702C491.515 278.617 491.466 278.518 488.209 282.712C486.729 284.587 485.644 285.573 484.953 285.573C483.029 285.573 482.634 284.883 482.684 281.824C482.684 280.245 482.733 278.271 482.733 277.433C482.733 276.643 483.029 273.93 483.374 271.463L484.065 266.924L505.675 236.285C524.324 209.84 527.383 205.745 528.124 206.189C528.617 206.436 530.64 207.916 532.613 209.544ZM181.478 220.201C185.129 223.803 189.273 228.539 191 231.055C194.503 236.088 196.328 239.097 195.983 239.393C195.884 239.492 183.254 245.955 167.91 253.701C139.639 268.009 138.505 268.502 135.692 267.368C134.854 267.072 134.854 266.973 135.544 266.381C136.432 265.641 136.63 264.605 135.742 265.148C135.396 265.345 135.347 265.296 135.544 264.901C135.742 264.605 136.087 264.457 136.334 264.605C136.58 264.753 137.074 264.457 137.419 263.865C137.765 263.322 148.964 254.589 162.335 244.524C175.705 234.41 186.559 226.072 186.411 225.973C186.313 225.875 176.1 233.473 163.667 242.847C151.283 252.221 141.021 259.819 140.873 259.72C140.725 259.572 168.255 221.73 172.992 215.613C173.238 215.267 173.386 214.922 173.288 214.823C173.189 214.724 165.196 225.332 155.575 238.407C140.823 258.438 137.616 262.533 135.199 264.309C133.62 265.493 132.436 266.578 132.584 266.726C132.732 266.874 133.324 266.578 133.867 266.085C135.002 265.049 135.791 265.444 134.854 266.529C134.163 267.417 130.759 267.466 131.252 266.628C131.449 266.332 136.728 258.882 142.994 250.05C149.26 241.219 158.092 228.736 162.68 222.273L170.969 210.58L172.992 212.159C174.126 213.047 177.925 216.649 181.478 220.201ZM422.196 216.994L424.416 222.668L420.272 218.227C418.002 215.761 416.127 213.54 416.078 213.294C416.078 212.603 419.186 210.531 419.581 210.975C419.778 211.172 420.962 213.886 422.196 216.994ZM421.061 219.954L425.255 224.641L429.596 235.496C432.014 241.465 435.319 249.014 436.997 252.221C439.76 257.55 440.648 258.783 447.259 265.986C451.305 270.328 454.462 274.028 454.314 274.127C454.166 274.275 454.364 274.719 454.709 275.114C455.203 275.755 455.153 275.854 454.512 275.607C454.068 275.41 451.058 274.472 447.851 273.436C444.595 272.4 441.437 271.216 440.747 270.821C440.105 270.377 439.119 270.032 438.526 269.983C437.441 269.933 387.462 253.553 386.821 253.01C386.475 252.714 391.705 241.811 393.087 240.035C393.728 239.196 395.405 240.281 416.078 254.491C428.363 262.927 438.477 269.736 438.576 269.637C438.674 269.539 428.659 262.533 416.325 254.047L393.876 238.604L396.145 235.348C399.254 230.907 403.349 225.875 403.842 225.875C404.089 225.875 413.512 234.904 424.86 246.005C446.618 267.269 455.597 275.854 452.341 272.301C451.256 271.167 440.007 260.066 427.327 247.731L404.237 225.283L405.174 223.951C405.717 223.26 408.184 220.596 410.7 218.079C415.042 213.688 415.288 213.491 416.078 214.379C416.522 214.873 418.791 217.389 421.061 219.954ZM51.325 216.205C52.4105 218.03 88.6736 255.428 89.1176 255.132C89.3643 254.984 89.463 255.083 89.2656 255.379C89.1176 255.675 89.167 256.02 89.4137 256.217C90.0057 256.563 97.061 269.785 96.8143 269.983C96.7156 270.081 84.1839 260.855 68.9879 249.458C53.7919 238.061 40.9641 228.49 40.4708 228.095C39.8294 227.651 39.6814 227.207 39.9774 226.664C40.6681 225.431 50.0423 215.514 50.4863 215.514C50.733 215.514 51.1277 215.81 51.325 216.205ZM546.378 222.273C549.931 225.924 553.286 229.97 555.309 233.029C559.157 238.949 560.933 242.008 560.637 242.304C560.489 242.403 556.295 244.475 551.263 246.843C546.23 249.211 534.981 254.589 526.249 258.734C517.516 262.927 510.214 266.332 510.066 266.332C509.918 266.332 519.243 257.846 530.738 247.485C542.283 237.124 551.608 228.539 551.51 228.44C551.411 228.342 541.445 237.124 529.406 247.978L507.55 267.713L502.221 270.229C499.31 271.561 496.991 272.548 497.09 272.301C497.386 271.512 540.113 216.501 540.458 216.501C540.606 216.501 543.27 219.116 546.378 222.273ZM393.037 218.079C386.673 226.269 385.489 227.7 386.229 226.368C387.314 224.444 392.84 217.487 393.284 217.487C393.383 217.487 393.284 217.783 393.037 218.079ZM326.037 231.746C327.912 234.164 329.392 236.285 329.342 236.482C329.244 237.173 301.812 263.026 290.859 272.647L282.866 279.751L279.61 277.679C274.38 274.374 269.2 272.943 260.368 272.4L255.336 272.104L253.264 265.986C251.981 262.286 251.34 259.671 251.586 259.424C252.672 258.339 265.746 252.912 292.981 242.304C302.404 238.604 313.998 232.93 318.143 229.92C320.067 228.588 321.843 227.404 322.139 227.404C322.435 227.355 324.211 229.328 326.037 231.746ZM60.5018 243.784C72.1948 252.517 85.368 262.385 89.7097 265.592C97.357 271.315 98.3438 272.104 98.3438 272.844C98.3438 273.979 95.9756 274.028 86.9468 272.992L77.2273 271.857L54.1373 256.908C41.4082 248.718 30.7019 241.712 30.3072 241.367C29.7645 240.873 30.0605 240.183 31.9847 237.173C34.3036 233.621 38.5959 227.848 38.9906 227.848C39.0893 227.848 48.7595 235.002 60.5018 243.784ZM198.943 244.08C201.657 249.458 203.482 254.145 203.087 254.54C202.841 254.688 195.44 258.142 186.559 262.138L170.426 269.391L157.944 268.799C151.086 268.453 144.573 268.058 143.537 267.861C141.662 267.565 142.55 267.072 168.946 253.701C183.994 246.103 196.427 239.936 196.674 240.084C196.871 240.183 197.907 241.959 198.943 244.08ZM52.8545 256.661C65.3862 264.802 75.5991 271.512 75.5005 271.561C75.4511 271.611 69.9746 271.068 63.3141 270.279L51.2264 268.947L36.9678 262.977C29.1725 259.72 22.6599 256.908 22.5612 256.809C22.2159 256.464 25.6695 247.781 27.3963 244.623C28.2844 242.995 29.2711 241.712 29.5178 241.761C29.8138 241.86 40.3228 248.57 52.8545 256.661ZM563.351 246.794C564.239 248.718 565.521 251.925 566.212 253.849L567.495 257.402L565.423 257.994C564.288 258.29 549.585 262.286 532.761 266.825C515.937 271.413 501.531 275.311 500.692 275.508C499.508 275.804 500.001 275.212 503.603 271.956L507.944 268.058L534.389 255.428C548.993 248.471 561.081 242.896 561.328 243.044C561.525 243.143 562.462 244.87 563.351 246.794ZM453.081 255.477C458.311 261.299 463.245 266.776 464.034 267.614C465.021 268.7 465.859 270.575 466.896 274.275C468.474 279.801 468.573 280.294 467.981 280.047C467.734 279.949 463.787 276.002 459.199 271.265C449.874 261.694 448.641 259.819 444.595 249.952C443.312 246.745 442.227 243.932 442.227 243.735C442.227 243.34 441.684 242.748 453.081 255.477ZM447.111 275.804C450.17 277.926 452.785 279.603 452.884 279.505C452.982 279.406 450.91 277.827 448.295 275.952C445.631 274.127 443.806 272.746 444.2 272.844C456.14 276.693 456.239 276.791 458.508 279.011L460.728 281.232L457.768 280.886C456.14 280.689 454.561 280.344 454.216 280.047C453.87 279.801 453.426 279.702 453.18 279.85C452.785 280.097 382.084 269.44 381.69 269.095C381.542 268.947 385.143 256.908 385.933 254.885L386.426 253.553L413.956 262.73L441.487 271.907L447.111 275.804ZM116.5 265.444C116.056 266.924 115.711 267.318 114.773 267.318C114.082 267.318 113.638 267.022 113.638 266.578C113.638 265.69 115.563 256.464 116.007 255.477C116.599 253.948 117.092 263.569 116.5 265.444ZM205.801 261.497C206.936 265.098 208.021 268.65 208.169 269.391L208.465 270.772H205.11C199.042 270.821 173.09 269.637 172.745 269.341C172.498 269.095 202.298 255.231 203.482 255.033C203.63 254.984 204.666 257.944 205.801 261.497ZM484.213 262.187C483.67 265.148 483.128 268.848 482.98 270.427C482.684 274.324 482.092 274.719 482.19 271.019C482.24 269.391 482.092 267.121 481.894 265.937C481.647 264.21 481.845 263.273 483.177 260.164C484.065 258.092 484.854 256.513 484.953 256.612C485.052 256.711 484.706 259.227 484.213 262.187ZM35.5863 262.927C42.839 265.937 49.0062 268.601 49.2529 268.897C49.5982 269.243 49.4502 269.341 48.7595 269.144C48.2168 268.996 44.5658 268.749 40.6188 268.552C33.4155 268.206 19.897 267.022 19.5516 266.628C19.3049 266.43 21.9692 257.451 22.2652 257.451C22.3639 257.451 28.3831 259.918 35.5863 262.927ZM465.662 261.694C467.734 265 468.129 265.986 468.277 268.502L468.474 271.512L467.192 270.279C466.254 269.391 465.465 267.417 464.231 263.273C463.343 260.066 462.751 257.55 462.899 257.648C463.097 257.796 464.33 259.572 465.662 261.694ZM568.778 261.447C570.455 266.43 572.182 273.239 571.837 273.584C571.639 273.732 555.506 277.383 535.919 281.676L500.297 289.422L494.229 287.892C490.874 287.004 488.111 286.215 488.111 286.067C488.111 285.919 490.331 283.797 493.094 281.38L498.028 276.939L532.416 267.466C551.312 262.286 567.002 258.092 567.248 258.142C567.495 258.191 568.186 259.671 568.778 261.447ZM100.909 268.502L101.945 269.933L100.761 270.821C100.12 271.315 99.3305 271.759 98.9851 271.759C98.6891 271.759 97.061 269.045 95.3835 265.69L92.3246 259.671L96.1236 263.371C98.1957 265.394 100.367 267.713 100.909 268.502ZM481.647 268.256C481.697 269.292 475.382 278.962 474.938 278.518C474.888 278.419 475.184 277.482 475.678 276.396C476.171 275.36 477.552 272.301 478.786 269.637C481.006 264.753 481.499 264.506 481.647 268.256ZM472.027 271.759C474.642 276.002 475.135 277.186 474.494 277.778C474.346 277.975 473.063 276.841 471.632 275.262C469.264 272.696 469.066 272.252 468.918 269.884C468.869 268.453 468.918 267.318 469.017 267.318C469.165 267.318 470.497 269.341 472.027 271.759ZM501.925 272.746C499.212 275.262 497.584 276.347 495.758 276.89C494.426 277.285 493.242 277.581 493.193 277.482C493.094 277.433 493.587 276.594 494.278 275.656C495.166 274.472 496.893 273.288 500.346 271.66C502.961 270.377 505.231 269.341 505.379 269.341C505.527 269.341 503.948 270.871 501.925 272.746ZM418.791 275.459C438.625 278.567 455.696 281.232 456.781 281.38C461.172 281.873 461.814 282.12 464.083 284.537C466.155 286.708 466.501 287.547 465.317 287.547C465.07 287.547 465.021 287.3 465.169 287.053C465.317 286.757 465.07 286.56 464.527 286.56C464.034 286.56 462.011 285.425 460.038 284.044C458.064 282.662 456.337 281.626 456.239 281.774C456.14 281.873 457.571 283.008 459.495 284.34C461.37 285.672 462.949 286.905 462.949 287.103C462.949 287.3 463.245 287.547 463.59 287.695C463.886 287.793 463.689 287.843 463.146 287.744C462.554 287.645 461.123 287.991 459.939 288.484C458.459 289.126 455.005 289.718 449.381 290.31C441.585 291.099 440.352 291.099 431.866 290.359C426.833 289.915 413.068 288.78 401.277 287.744C389.485 286.757 379.617 285.721 379.371 285.524C379.075 285.277 379.223 282.86 379.765 279.307C380.801 272.104 381.394 269.785 382.183 269.785C382.528 269.785 399.007 272.351 418.791 275.459ZM35.1916 272.055C41.8522 272.449 50.7823 273.091 55.0747 273.486C62.278 274.176 63.2647 274.374 67.4091 276.199C69.9253 277.235 71.5534 278.123 71.0601 278.173C70.0733 278.173 24.3867 273.88 20.6371 273.436C19.3049 273.288 18.3182 273.288 18.5155 273.486C18.6635 273.634 31.3433 275.015 46.638 276.446L74.5137 279.11L81.4703 281.972C85.3186 283.55 88.4762 284.981 88.4762 285.129C88.4762 285.277 84.3319 285.672 79.2501 285.968C31.3433 288.978 17.2328 289.964 17.5781 290.31C17.6768 290.408 27.9884 289.866 40.4214 289.027C52.8545 288.188 69.1852 287.103 76.6352 286.609C85.1213 286.067 90.6964 285.919 91.4858 286.165C92.6699 286.56 92.8179 286.905 93.0646 289.668C93.2126 291.346 93.4593 293.073 93.6073 293.517C94.0021 294.405 89.2656 297.908 87.6868 297.908C87.1441 297.908 71.5041 299.881 52.9532 302.348C34.3529 304.766 19.0582 306.788 18.9596 306.788C18.8609 306.788 18.8609 306.887 19.0089 307.035C19.1569 307.183 34.5503 305.308 53.1999 302.841C71.8495 300.375 87.1935 298.45 87.2921 298.549C87.3908 298.648 84.8746 300.473 81.6677 302.693L75.8952 306.64L51.473 314.189C38.0532 318.333 26.3109 321.935 25.4228 322.182C24.4854 322.428 23.844 322.774 23.992 322.873C24.14 323.021 34.4022 319.962 46.8353 316.113C75.2538 307.38 73.675 307.825 73.675 308.022C73.675 308.318 31.442 336.934 30.9979 336.934C29.7152 336.983 21.1798 318.679 19.4036 311.969C16.5914 301.657 15.5553 285.425 17.1341 276.693C18.2688 270.377 18.0222 270.772 20.7357 271.019C22.0185 271.167 28.5311 271.611 35.1916 272.055ZM469.116 276.693C469.313 278.715 469.362 280.294 469.214 280.146C469.066 279.998 468.474 278.123 467.882 275.952C467.29 273.831 466.649 271.709 466.55 271.265C466.353 270.871 466.797 271.068 467.537 271.759C468.573 272.795 468.82 273.634 469.116 276.693ZM481.697 275.41V280.047L479.625 280.886C477.602 281.676 477.552 281.676 476.418 280.541L475.283 279.357L478.293 275.064C479.97 272.696 481.45 270.772 481.549 270.772C481.598 270.772 481.697 272.844 481.697 275.41ZM471.78 276.199C473.803 278.567 473.852 278.814 473.309 280.195C472.816 281.38 472.471 281.577 471.632 281.33C471.089 281.182 470.448 280.886 470.3 280.689C469.905 280.344 469.165 273.732 469.51 273.732C469.609 273.732 470.645 274.867 471.78 276.199ZM572.823 276.545C573.267 279.11 573.366 289.816 572.971 290.162C572.725 290.359 558.96 290.704 525.854 291.296C509.622 291.592 508.388 291.543 505.132 290.606L501.679 289.668L504.392 289.076C505.872 288.78 521.562 285.327 539.175 281.429C556.838 277.531 571.491 274.324 571.837 274.275C572.182 274.275 572.577 275.262 572.823 276.545ZM80.7796 276.446C88.0322 277.334 94.1007 278.222 94.1994 278.321C94.3474 278.419 94.2487 278.913 94.1007 279.406C93.8047 280.195 93.3113 280.245 89.759 279.949C80.2369 279.258 78.4114 279.258 85.516 280.047C92.1766 280.788 93.1633 280.985 93.114 281.725C92.966 285.031 92.966 285.08 91.5845 285.08C89.759 285.08 77.3259 279.85 77.474 279.209C77.5726 278.913 76.8819 278.666 75.9938 278.666C74.267 278.617 64.8929 274.768 66.521 274.768C67.0637 274.719 73.4776 275.508 80.7796 276.446ZM496.498 277.383C496.498 277.827 487.075 286.165 486.828 285.919C486.68 285.771 487.864 283.994 489.443 281.972C491.811 278.913 492.65 278.173 494.278 277.778C495.363 277.531 496.301 277.285 496.399 277.235C496.449 277.235 496.498 277.285 496.498 277.383ZM461.616 280.541C462.357 281.33 462.357 281.429 461.567 281.429C461.074 281.429 460.679 281.034 460.679 280.541C460.679 280.047 460.728 279.653 460.778 279.653C460.778 279.653 461.172 280.047 461.616 280.541ZM475.776 282.317C474.395 282.958 473.359 281.972 474.296 280.886C474.888 280.195 475.036 280.195 475.875 280.985C476.812 281.824 476.812 281.873 475.776 282.317ZM471.78 282.07C472.273 282.366 472.273 282.564 471.829 282.86C471.484 283.057 470.892 282.86 470.448 282.416C469.757 281.774 469.757 281.626 470.349 281.626C470.744 281.626 471.385 281.824 471.78 282.07ZM481.203 282.86C481.203 284.34 480.463 284.488 479.723 283.156C479.033 281.824 479.082 281.626 480.217 281.626C480.957 281.626 481.203 281.972 481.203 282.86ZM465.465 283.452C467.438 284.883 467.882 285.573 466.748 285.573C466.402 285.573 465.366 284.784 464.429 283.846C462.406 281.774 462.85 281.626 465.465 283.452ZM479.23 283.156C479.23 283.402 479.082 283.55 478.885 283.501C478.638 283.452 477.552 283.698 476.467 284.044C474.938 284.537 474.198 284.587 473.507 284.192C472.816 283.748 472.767 283.6 473.309 283.6C473.951 283.6 473.951 283.55 473.309 283.057C472.668 282.613 472.668 282.564 473.309 282.761C473.704 282.86 474 283.254 473.901 283.6C473.803 283.994 474.05 284.093 474.543 283.896C474.987 283.748 475.826 283.6 476.319 283.6C476.96 283.6 477.207 283.402 476.96 283.008C476.714 282.613 476.862 282.564 477.404 282.761C477.898 282.909 478.243 282.86 478.243 282.564C478.243 282.268 478.49 282.218 478.737 282.366C479.033 282.514 479.23 282.86 479.23 283.156ZM482.042 283.945C481.894 284.439 481.796 284.143 481.796 283.353C481.796 282.514 481.894 282.169 482.042 282.465C482.141 282.81 482.141 283.501 482.042 283.945ZM153.355 284.044C153.059 284.291 151.875 284.636 150.642 284.833C149.161 285.031 148.569 284.981 148.915 284.685C149.359 284.241 150.642 283.945 153.108 283.649C153.553 283.649 153.602 283.748 153.355 284.044ZM178.813 284.833C181.872 285.277 204.173 286.165 207.034 285.968C209.995 285.721 210.34 285.771 210.34 286.609C210.34 287.399 209.995 287.497 206.294 287.251C201.459 286.955 158.338 285.08 155.378 285.031C153.75 285.031 153.553 284.932 154.342 284.537C155.23 284.143 175.853 284.34 178.813 284.833ZM148.175 285.277C148.175 285.376 147.829 285.623 147.385 285.771C146.991 285.919 146.793 285.869 146.941 285.573C147.237 285.08 148.175 284.883 148.175 285.277ZM189.52 287.004C200.719 287.497 209.995 288.04 210.192 288.188C210.34 288.336 210.291 290.063 210.093 291.938L209.748 295.441H207.873C206.886 295.441 200.719 294.799 194.256 294.01C187.793 293.171 174.126 291.592 163.963 290.458C153.799 289.323 145.412 288.336 145.313 288.287C145.264 288.238 145.313 287.843 145.511 287.399C146.251 285.376 151.036 285.327 189.52 287.004ZM468.869 286.017C468.869 286.659 467.488 287.103 467.142 286.56C466.994 286.363 467.192 286.017 467.488 285.919C468.474 285.524 468.869 285.524 468.869 286.017ZM483.868 286.363C484.904 286.757 484.854 287.152 483.769 288.435C482.881 289.422 482.881 289.422 482.832 287.744C482.782 286.807 482.832 286.067 482.93 286.067C483.029 286.067 483.424 286.215 483.868 286.363ZM408.283 288.879C423.38 290.162 435.665 291.296 435.566 291.395C435.468 291.494 431.767 291.889 427.376 292.283C422.936 292.678 411.884 293.961 402.757 295.145C381.69 297.908 380.209 298.056 379.913 297.562C379.765 297.316 379.469 294.75 379.272 291.839C378.976 286.856 378.976 286.56 379.864 286.56C380.407 286.511 393.185 287.596 408.283 288.879ZM498.274 289.668C498.422 289.816 497.633 290.063 496.498 290.26C494.821 290.556 493.883 290.31 490.775 288.928C488.801 288.04 487.124 287.152 487.124 287.004C487.124 286.659 497.88 289.224 498.274 289.668ZM490.134 289.175L493.735 290.852L491.466 291.395C487.765 292.333 486.039 292.135 484.953 290.655C484.016 289.372 484.016 289.372 485.2 288.484C485.841 287.991 486.433 287.547 486.433 287.547C486.483 287.547 488.111 288.287 490.134 289.175ZM228.299 292.875C229.582 296.526 229.434 296.921 226.918 296.921C224.747 296.921 224.747 296.921 224.845 295.293C224.944 294.454 225.043 292.53 225.092 291.05L225.141 288.386L226.325 289.52C227.016 290.112 227.904 291.642 228.299 292.875ZM484.657 291C485.298 292.234 484.46 292.333 483.67 291.099C483.128 290.31 483.128 290.31 483.374 291.099C483.522 291.691 483.374 291.987 482.93 291.987C482.042 291.987 481.993 291.395 482.782 290.606C483.621 289.767 484.065 289.866 484.657 291ZM503.011 290.606C507.155 291.494 506.81 291.889 501.827 291.938C496.054 291.987 494.278 291.247 498.225 290.359C499.902 289.964 500.297 290.014 503.011 290.606ZM495.511 291.79C495.511 291.889 494.673 291.987 493.686 291.938C492.058 291.889 491.959 291.839 493.044 291.543C494.179 291.198 495.511 291.346 495.511 291.79ZM572.971 292.431C572.971 294.109 571.59 305.16 571.245 306.344C570.998 306.986 566.755 306.048 542.234 299.881C526.446 295.934 513.174 292.53 512.78 292.382C512.385 292.185 515.592 292.037 519.934 291.938C524.275 291.889 534.488 291.691 542.629 291.494C550.769 291.346 560.933 291.148 565.225 291.099L572.971 291V292.431ZM469.905 293.665C469.51 294.651 469.066 294.947 467.882 294.947C466.106 294.947 466.304 294.306 468.524 292.974C470.349 291.839 470.547 291.938 469.905 293.665ZM472.569 294.355C472.125 294.799 471.336 293.813 471.336 292.826C471.385 291.79 471.385 291.79 472.076 292.974C472.421 293.665 472.668 294.306 472.569 294.355ZM474.79 294.059C474.79 294.306 474.444 294.454 474.05 294.454C473.408 294.454 472.323 293.073 472.323 292.234C472.323 291.79 474.74 293.615 474.79 294.059ZM539.668 299.832C570.258 307.479 570.751 307.627 570.603 308.762C570.307 310.686 566.36 322.675 565.965 322.724C565.768 322.774 550.621 316.064 532.317 307.775L499.064 292.727L501.876 292.481C503.405 292.333 505.527 292.185 506.612 292.135C507.846 292.086 520.526 294.997 539.668 299.832ZM483.424 292.974C483.276 293.221 482.881 293.467 482.634 293.467C482.338 293.467 482.289 293.221 482.437 292.974C482.585 292.678 482.98 292.481 483.226 292.481C483.522 292.481 483.572 292.678 483.424 292.974ZM531.429 307.874C550.177 316.36 565.571 323.563 565.571 323.909C565.571 324.994 562.166 332.395 560.39 335.108L558.515 337.871L553.286 335.059C550.424 333.48 535.968 325.734 521.167 317.84L494.327 303.384L490.676 298.45C488.703 295.687 487.223 293.27 487.371 292.974C487.519 292.678 489.788 292.481 492.502 292.481H497.337L531.429 307.874ZM489.295 297.414C491.071 299.832 492.551 301.953 492.551 302.101C492.551 302.2 491.564 301.855 490.43 301.312C488.653 300.424 488.012 299.733 486.729 297.118C485.841 295.342 485.15 293.714 485.15 293.467C485.15 292.234 486.335 293.319 489.295 297.414ZM152.171 294.701C165.64 297.168 182.662 299.931 190.062 300.868C197.167 301.805 207.627 303.878 208.268 304.519C208.613 304.864 206.837 312.709 206.442 312.709C206.245 312.709 204.469 312.265 202.446 311.673C200.423 311.13 192.628 309.354 185.178 307.775C162.68 302.94 149.458 299.98 148.175 299.486C145.905 298.598 143.932 295.737 144.524 294.207C144.918 293.27 144.326 293.27 152.171 294.701ZM458.508 293.665C458.508 293.763 457.571 294.405 456.387 295.095C454.66 296.132 453.18 296.428 447.506 296.97C443.806 297.266 440.747 297.661 440.747 297.809C440.747 298.006 444.2 297.809 452.341 297.118C453.426 297.02 456.584 296.674 459.396 296.378C462.208 296.082 464.626 295.934 464.774 296.082C464.873 296.23 463.639 298.993 461.912 302.2C458.854 307.973 458.804 308.071 454.611 311.031C452.292 312.66 439.563 321.738 426.34 331.161C413.118 340.535 402.017 348.38 401.671 348.479C401.277 348.627 399.747 346.703 397.774 343.693C392.643 335.651 392.544 335.503 393.383 334.763C393.777 334.368 407.394 325.882 423.577 315.916C439.809 305.9 452.982 297.661 452.884 297.562C452.785 297.464 439.415 305.555 423.133 315.62C406.901 325.685 393.185 334.023 392.741 334.171C392.1 334.467 391.31 333.184 388.696 327.806C386.919 324.155 385.489 320.85 385.489 320.504C385.538 319.715 436.997 298.401 438.921 298.401C439.661 298.401 440.204 298.154 440.155 297.908C440.007 297.365 445.828 294.701 448.641 294.01C450.367 293.566 458.508 293.319 458.508 293.665ZM462.208 294.207C463.195 294.651 464.478 294.849 465.07 294.651C465.81 294.454 466.007 294.503 465.662 294.849C465.415 295.145 463.195 295.49 460.728 295.687C456.189 296.082 455.992 295.934 458.36 294.405C460.087 293.319 459.988 293.319 462.208 294.207ZM471.089 293.911C471.237 294.158 471.139 294.503 470.843 294.701C470.596 294.849 470.349 294.651 470.349 294.257C470.349 293.369 470.645 293.221 471.089 293.911ZM485.743 296.428C486.483 298.056 486.976 299.388 486.927 299.388C486.828 299.388 485.743 298.796 484.46 298.105C482.585 297.069 482.19 296.576 482.19 295.441C482.19 294.158 482.684 293.566 483.917 293.517C484.213 293.517 485.002 294.849 485.743 296.428ZM481.697 295.194C481.697 296.526 481.401 296.674 480.266 295.984C479.427 295.441 479.921 293.961 480.957 293.961C481.401 293.961 481.697 294.405 481.697 295.194ZM441.339 296.23L437.244 297.908L410.996 300.375C396.54 301.707 383.811 302.94 382.676 303.088C380.703 303.384 380.555 303.335 380.555 302.2C380.555 301.016 380.703 300.967 388.597 299.931C398.908 298.549 406.753 297.76 423.725 296.23C431.323 295.539 438.428 294.898 439.513 294.799C440.599 294.701 442.375 294.602 443.46 294.553C445.286 294.503 445.187 294.602 441.339 296.23ZM95.0875 295.737C95.4822 296.773 95.5809 296.724 92.9166 297.118L90.6964 297.414L92.1766 296.181C93.9034 294.75 94.6434 294.651 95.0875 295.737ZM473.408 296.625C473.457 297.118 473.309 297.661 473.013 297.76C472.421 297.957 471.731 295.687 472.224 295.194C472.619 294.799 473.211 295.539 473.408 296.625ZM476.516 295.638C477.108 296.181 477.059 296.477 476.072 297.365C475.48 297.957 474.79 298.253 474.642 298.056C474.444 297.908 474.296 298.105 474.296 298.5C474.296 298.944 473.951 299.536 473.556 299.881C472.915 300.375 472.816 300.325 472.816 299.486C472.816 298.845 473.507 298.056 474.592 297.414C475.53 296.822 476.22 296.181 476.072 296.033C475.924 295.934 475.48 296.033 475.135 296.329C474.395 296.97 473.803 296.625 473.803 295.589C473.803 294.75 475.678 294.75 476.516 295.638ZM468.228 298.746C467.241 301.756 466.896 302.2 463.935 304.371C462.159 305.703 460.58 306.739 460.432 306.788C460.038 306.788 464.873 297.414 465.81 296.28C466.205 295.836 467.142 295.441 467.932 295.441H469.264L468.228 298.746ZM471.533 296.23C472.175 297.858 471.78 298.796 470.004 300.029C469.017 300.769 468.129 301.263 468.03 301.213C467.981 301.115 468.376 299.783 468.968 298.253C470.004 295.49 470.941 294.701 471.533 296.23ZM479.921 296.428C480.611 296.674 481.203 297.266 481.203 297.71C481.203 298.45 481.055 298.401 480.069 297.513C478.589 296.132 478.49 296.132 478.441 297.809C478.391 298.549 478.095 300.128 477.75 301.361L477.108 303.582L476.171 301.411L475.184 299.289L476.812 297.612C477.701 296.674 478.49 295.934 478.539 295.934C478.638 295.934 479.23 296.132 479.921 296.428ZM96.5676 297.809C96.7156 298.056 96.1729 298.894 95.3835 299.634C94.2981 300.671 91.9299 301.657 86.4041 303.433C82.2597 304.716 78.6581 305.802 78.362 305.802C77.2273 305.802 89.3643 298.204 90.9431 297.858C93.4593 297.365 96.2716 297.365 96.5676 297.809ZM488.604 302.348C489.147 303.433 489.591 304.42 489.591 304.568C489.591 304.766 487.815 303.483 485.644 301.805C483.473 300.128 481.697 298.598 481.697 298.401C481.697 297.513 482.437 297.661 484.953 298.993C486.877 300.029 487.913 301.016 488.604 302.348ZM480.71 298.598C481.302 299.338 480.957 306.936 480.217 309.699C479.97 310.785 479.773 310.587 478.638 307.775C477.454 304.766 477.404 304.519 478.095 301.904C479.23 297.414 479.477 297.118 480.71 298.598ZM97.8504 299.338C97.8504 299.585 97.505 299.931 97.061 300.079C95.8769 300.523 95.6795 300.424 96.3703 299.634C97.061 298.796 97.8504 298.648 97.8504 299.338ZM434.283 299.092C433.987 299.338 386.377 319.024 385.538 319.222C384.65 319.419 382.726 314.238 381.542 308.515C381.048 306.098 380.703 304.026 380.801 303.927C380.999 303.73 429.646 299.042 432.31 298.944C433.494 298.944 434.382 298.993 434.283 299.092ZM472.471 300.079C472.619 300.473 471.336 302.151 469.313 304.124C467.438 305.999 465.909 307.38 465.909 307.282C465.909 307.134 466.304 305.999 466.797 304.716C467.389 303.137 468.326 301.855 469.609 300.868C471.879 299.19 472.125 299.141 472.471 300.079ZM475.826 302.2C476.763 304.322 476.763 304.864 476.22 307.43C475.924 309.009 475.48 310.094 475.283 309.897C475.086 309.699 474.592 307.677 474.099 305.407C473.457 302.2 473.359 301.115 473.852 300.572C474.642 299.585 474.691 299.634 475.826 302.2ZM486.483 303.187L490.726 306.443L494.278 313.893C496.251 317.988 503.109 332.099 509.573 345.272C515.986 358.445 521.562 369.941 521.956 370.779L522.647 372.407L519.193 374.134C514.161 376.65 508.24 378.92 507.846 378.476C507.599 378.279 501.432 363.329 494.031 345.321L480.611 312.512L481.154 307.035C481.45 304.026 481.697 301.164 481.697 300.72C481.697 300.276 481.845 299.881 481.993 299.881C482.141 299.881 484.213 301.361 486.483 303.187ZM100.465 301.164C103.179 302.545 103.228 302.595 102.34 305.752C101.551 308.565 100.761 309.551 77.474 335.404C64.2021 350.107 53.4465 362.195 53.5452 362.293C53.6439 362.441 58.2816 357.458 63.8074 351.291C91.5352 320.554 100.465 310.735 100.663 310.883C100.761 311.031 99.9719 314.337 98.8371 318.333L96.8143 325.537L82.013 348.577C73.8723 361.306 67.0144 371.717 66.7677 371.815C65.6329 372.21 50.1409 360.961 44.1711 355.337L40.8655 352.228L42.839 350.304C43.9244 349.219 53.7919 339.845 64.7942 329.484C75.7965 319.074 86.7988 308.614 89.315 306.147C93.4593 302.151 96.0742 300.473 98.2451 300.375C98.5904 300.375 99.5772 300.72 100.465 301.164ZM491.712 302.595C493.291 303.483 494.821 305.111 497.041 308.17C498.718 310.538 500.346 312.808 500.642 313.202C501.136 313.844 498.028 311.574 493.094 307.627C491.17 306.098 488.16 301.361 489.097 301.361C489.295 301.361 490.479 301.904 491.712 302.595ZM90.2031 304.667C84.8746 309.699 59.3177 333.924 49.8449 343.002C41.0628 351.39 40.5694 351.784 39.8294 350.896C38.4973 349.169 31.2446 338.217 31.2446 337.92C31.294 337.772 41.3588 330.767 53.6932 322.379L76.0925 307.084L84.3812 304.519C88.9203 303.088 92.7686 301.904 92.9166 301.904C93.0646 301.904 91.8312 303.137 90.2031 304.667ZM474 307.134L475.086 311.969L466.254 347.245C461.419 366.635 457.373 382.571 457.275 382.67C456.781 383.212 442.967 379.167 442.473 378.328C442.325 378.131 447.358 362.54 453.624 343.693L465.07 309.502L468.77 305.703C470.843 303.582 472.619 301.953 472.717 302.101C472.816 302.2 473.408 304.47 474 307.134ZM207.182 302.841C208.12 302.841 208.86 303.088 208.86 303.335C208.86 303.927 205.604 303.483 204.42 302.743C203.828 302.348 203.877 302.348 204.568 302.545C205.061 302.693 206.245 302.841 207.182 302.841ZM105.843 308.071C105.744 310.242 105.448 312.216 105.251 312.512C105.004 312.758 104.906 313.449 105.054 313.992C105.251 314.83 99.2812 378.032 98.5411 382.176C98.2944 383.706 98.1957 383.804 96.7156 383.508C93.6567 382.867 83.6905 380.203 83.1478 379.857C82.7037 379.611 84.6279 371.914 89.9564 352.524L97.4063 325.487L101.107 319.814C103.13 316.656 104.708 313.992 104.61 313.844C104.462 313.745 103.13 315.669 101.551 318.136C99.9719 320.603 98.6398 322.527 98.5411 322.428C98.3931 322.33 99.1332 319.271 100.12 315.62C101.748 309.65 102.093 308.811 103.919 306.936C105.004 305.752 105.794 304.716 105.646 304.568C105.498 304.42 104.807 304.963 104.116 305.802C102.488 307.677 102.241 307.677 102.833 305.654C103.13 304.815 103.475 303.779 103.574 303.384C103.771 302.841 103.968 302.841 104.906 303.483C105.892 304.174 105.991 304.519 105.843 308.071ZM465.711 306.147C465.07 308.071 463.787 309.65 458.952 314.436L452.982 320.356L456.189 314.288C459.199 308.515 459.495 308.121 462.751 305.851C464.626 304.519 466.254 303.483 466.353 303.582C466.402 303.68 466.155 304.815 465.711 306.147ZM108.902 306.739C108.458 307.479 107.669 308.614 107.126 309.305L106.139 310.489L106.435 308.811C106.583 307.923 106.731 306.542 106.731 305.752C106.731 304.42 106.78 304.371 108.211 304.864C109.642 305.407 109.691 305.407 108.902 306.739ZM228.348 305.308C228.891 306.196 226.473 310.341 224.549 311.92C223.513 312.709 222.576 313.252 222.428 313.104C222.28 313.005 222.526 311.081 222.971 308.861L223.809 304.815H225.931C227.066 304.815 228.2 305.062 228.348 305.308ZM528.321 322.231C544.602 330.915 558.022 338.118 558.121 338.167C558.219 338.266 556.443 340.683 554.174 343.545C551.904 346.456 549.684 349.268 549.24 349.811C548.5 350.798 547.809 350.304 525.607 332.987C503.109 315.423 502.715 315.077 499.458 310.587C495.018 304.42 495.117 304.568 497.041 305.555C497.978 306.048 512.039 313.548 528.321 322.231ZM113.49 306.64C117.092 307.775 117.733 309.009 117.635 314.633C117.585 316.952 117.24 328.201 116.845 339.598C116.451 350.995 116.007 364.316 115.859 369.201C115.711 374.085 115.513 379.512 115.365 381.288C115.267 383.262 115.316 384.002 115.563 383.262C115.76 382.571 116.105 376.897 116.303 370.681C116.451 364.415 116.944 350.354 117.339 339.351C117.733 328.349 118.079 317.84 118.079 315.916C118.079 313.942 118.276 312.709 118.523 312.956C118.77 313.252 120.052 316.015 121.434 319.123L123.95 324.797L127.897 353.61C130.117 369.497 131.795 382.522 131.696 382.62C131.351 383.015 123.21 384.15 116.845 384.742C110.826 385.334 104.61 385.137 100.811 384.298C99.1825 383.952 99.0838 383.854 99.2318 381.979C99.3305 380.104 105.498 317.199 105.892 313.696C106.139 311.92 109.593 305.851 110.382 305.802C110.629 305.802 112.06 306.196 113.49 306.64ZM478.885 309.601C480.167 312.857 480.167 313.153 479.723 318.136C479.477 320.998 479.23 323.958 479.23 324.797C479.181 327.264 478.49 325.339 477.01 318.481C475.776 312.66 475.727 311.87 476.27 309.206C476.615 307.627 477.059 306.295 477.256 306.295C477.454 306.295 478.194 307.775 478.885 309.601ZM497.633 311.87L502.468 315.62L519.687 339.45L536.906 363.28L535.722 364.267C533.847 365.846 524.522 371.569 523.732 371.618C523.091 371.667 518.207 361.997 496.449 317.199C493.785 311.722 491.86 307.38 492.206 307.677C492.502 307.923 494.969 309.798 497.633 311.87ZM118.079 308.565C118.079 308.959 117.881 309.157 117.585 309.009C117.339 308.861 117.092 308.515 117.092 308.219C117.092 307.973 117.339 307.775 117.585 307.775C117.881 307.775 118.079 308.121 118.079 308.565ZM121.236 309.354C121.878 310.341 123.753 321.491 123.407 321.886C123.21 322.083 118.671 311.624 118.523 310.735C118.227 308.121 119.855 307.282 121.236 309.354ZM130.857 311.229C135.051 312.364 138.801 313.498 139.146 313.794C139.541 314.09 147.928 324.846 157.845 337.723C167.762 350.551 176.001 361.06 176.1 361.06C176.248 361.06 176.198 360.813 176.001 360.517C175.606 359.876 148.767 325.043 143.636 318.531C141.81 316.163 140.281 314.14 140.281 314.041C140.281 313.893 142.846 314.534 145.955 315.472C149.803 316.557 152.171 317.544 153.306 318.481C154.194 319.222 162.187 326.375 171.018 334.368L187.102 348.873L184.043 352.623C179.06 358.741 172.893 364.563 168.403 367.326C166.084 368.756 163.864 369.99 163.469 370.138C162.927 370.335 157.204 362.145 142.748 340.535C131.745 324.106 122.717 310.341 122.618 309.946C122.371 309.009 122.223 309.009 130.857 311.229ZM454.956 315.521L451.848 321.442L432.458 341.078L413.118 360.665L410.256 358.198C405.372 353.906 401.573 349.712 402.165 349.12C403.003 348.281 457.768 309.354 457.916 309.502C457.965 309.551 456.633 312.265 454.956 315.521ZM453.081 343.89C446.865 362.343 441.635 377.637 441.437 377.785C441.092 378.131 428.116 371.519 427.376 370.631C426.932 370.089 431.323 361.306 449.479 327.017C451.305 323.563 452.785 321.738 457.916 316.508C461.37 313.054 464.231 310.242 464.281 310.242C464.33 310.242 459.298 325.389 453.081 343.89ZM142.55 341.029C153.108 356.767 161.891 369.891 162.137 370.237C162.581 370.977 159.177 373 152.812 375.762L148.273 377.687L147.533 376.058C147.089 375.17 141.712 363.181 135.594 349.465C124.641 324.994 124.394 324.402 123.753 319.468C123.358 316.705 122.914 313.794 122.766 312.956C122.618 312.068 122.667 311.673 122.963 311.969C123.21 312.265 132.041 325.339 142.55 341.029ZM476.566 356.373C475.283 371.569 474.296 384.298 474.296 384.693C474.296 385.235 473.507 385.334 470.251 385.087C466.55 384.841 458.557 383.459 458.064 382.966C457.867 382.818 474.74 314.781 475.184 313.992C475.332 313.745 476.22 316.952 477.158 321.146L478.835 328.744L476.566 356.373ZM494.278 347.245C501.235 364.217 507.056 378.328 507.204 378.624C507.648 379.808 492.304 383.952 491.614 382.867C491.466 382.571 488.752 370.927 485.644 356.915C482.536 342.904 479.921 331.655 479.822 331.951C479.723 332.197 482.141 343.594 485.15 357.211C488.16 370.878 490.676 382.374 490.726 382.768C490.824 383.508 486.236 384.248 478.145 384.89C475.234 385.137 474.79 385.038 474.79 384.347C474.79 383.903 475.826 371.865 477.059 357.606C478.293 343.348 479.378 330.569 479.427 329.237C479.674 323.859 480.365 315.373 480.611 314.978C480.759 314.732 481.055 314.929 481.253 315.472C481.45 315.965 487.321 330.273 494.278 347.245ZM529.061 336.342C539.224 344.285 547.612 350.946 547.711 351.192C547.809 351.439 545.885 353.906 543.467 356.718C539.076 361.8 537.547 363.329 537.251 362.984C536.807 362.441 505.034 318.284 504.639 317.643C504.392 317.248 505.626 318.037 507.352 319.419C509.129 320.8 518.897 328.398 529.061 336.342ZM162.779 320.06C169.735 321.836 170.87 322.33 183.352 328.744C190.605 332.444 196.674 335.404 196.822 335.256C196.97 335.158 191.542 332.197 184.833 328.793C178.123 325.339 173.14 322.626 173.83 322.774C188.582 326.03 200.275 328.694 200.473 328.842C201.015 329.336 197.019 335.898 192.727 341.571C190.161 344.976 187.891 347.837 187.645 347.985C187.25 348.232 153.602 318.383 153.602 317.791C153.602 317.692 153.997 317.692 154.49 317.84C154.983 318.037 158.684 319.024 162.779 320.06ZM445.976 332.543C430.534 362.047 426.439 369.694 425.995 369.694C425.699 369.694 422.788 367.72 419.482 365.303L413.512 360.912L431.669 342.756C441.684 332.74 449.923 324.55 450.022 324.55C450.121 324.55 448.295 328.152 445.976 332.543ZM136.235 352.179C142.205 365.599 147.188 376.897 147.287 377.292C147.385 377.785 146.399 378.427 144.228 379.216C140.725 380.548 132.781 382.818 132.584 382.62C132.387 382.472 124.986 328.941 124.986 327.954C124.986 327.609 125.085 327.461 125.183 327.56C125.233 327.658 130.216 338.759 136.235 352.179ZM95.8769 329.336C95.5809 330.125 92.4233 341.571 88.7723 354.794C85.1213 368.066 82.0624 379.019 81.9143 379.167C81.569 379.463 74.3657 376.354 70.468 374.134L67.3104 372.407L79.4475 353.511C96.0249 327.658 95.8275 328.004 96.0742 328.004C96.2222 328.004 96.1236 328.596 95.8769 329.336Z"
    fill="currentColor" />
  <path
    d="M477.01 279.505C477.405 280.393 477.898 281.133 477.997 281.133C478.49 281.133 478.194 280.343 477.207 279.159L476.221 277.926L477.01 279.505Z"
    fill="currentColor" />
</svg>